<?xml version="1.0" encoding="utf-8"?>
<!-- Generator: Adobe Illustrator 22.0.1, SVG Export Plug-In . SVG Version: 6.00 Build 0)  -->
<svg version="1.1" id="Слой_1" xmlns="http://www.w3.org/2000/svg" xmlns:xlink="http://www.w3.org/1999/xlink" x="0px" y="0px"
	 viewBox="0 0 234 391.2" style="enable-background:new 0 0 234 391.2;" xml:space="preserve">
<style type="text/css">
	.st0{fill:#000004;}
	.st1{fill:url(#SVGID_1_);}
	.st2{fill:url(#SVGID_2_);}
	.st3{fill:url(#SVGID_3_);}
	.st4{fill:url(#SVGID_4_);}
	.st5{fill:url(#SVGID_5_);}
	.st6{fill:url(#SVGID_6_);}
	.st7{fill:url(#SVGID_7_);}
	.st8{fill:url(#SVGID_8_);}
	.st9{fill:url(#SVGID_9_);}
	.st10{fill:url(#SVGID_10_);}
	.st11{fill:url(#SVGID_11_);}
	.st12{fill:url(#SVGID_12_);}
	.st13{fill:url(#SVGID_13_);}
	.st14{fill:url(#SVGID_14_);}
	.st15{fill:url(#SVGID_15_);}
	.st16{fill:url(#SVGID_16_);}
	.st17{opacity:0.38;fill:url(#SVGID_17_);}
	.st18{opacity:0.38;fill:url(#SVGID_18_);}
	.st19{fill:#FFFFFF;}
	.st20{fill:#1A1A1A;}
	.st21{fill:#262626;}
	.st22{fill:#333333;}
	.st23{fill:url(#SVGID_19_);}
	.st24{fill:url(#SVGID_20_);}
	.st25{fill:url(#SVGID_21_);}
	.st26{fill:url(#SVGID_22_);}
	.st27{fill:url(#SVGID_23_);}
	.st28{fill:url(#SVGID_24_);}
	.st29{fill:url(#SVGID_25_);}
	.st30{fill:url(#SVGID_26_);}
	.st31{fill:url(#SVGID_27_);}
	.st32{fill:url(#SVGID_28_);}
	.st33{fill:url(#SVGID_29_);}
	.st34{fill:#555658;}
	.st35{fill:url(#SVGID_30_);}
	.st36{fill:url(#SVGID_31_);}
</style>
<g>
	<g>
		<g>
			<g>
				<path class="st0" d="M185.4,23.3H63.6c-14.4,0-26.1,11.7-26.1,26.1v299.8c0,14.4,11.7,26.1,26.1,26.1h121.9
					c14.4,0,26.1-11.7,26.1-26.1V49.4C211.6,35,199.9,23.3,185.4,23.3z"/>
				<linearGradient id="SVGID_1_" gradientUnits="userSpaceOnUse" x1="37.4236" y1="77.3981" x2="37.8844" y2="77.3981">
					<stop  offset="0" style="stop-color:#666666"/>
					<stop  offset="7.107717e-02" style="stop-color:#5C5C5C"/>
					<stop  offset="0.2937" style="stop-color:#414141"/>
					<stop  offset="0.5209" style="stop-color:#2E2E2E"/>
					<stop  offset="0.7536" style="stop-color:#232323"/>
					<stop  offset="1" style="stop-color:#1F1F1F"/>
				</linearGradient>
				<path class="st1" d="M37.9,83.4c0-0.3,0-11.5,0-12c0-0.5-0.1-0.9-0.5-1.2v14.2C37.9,84.3,37.9,83.6,37.9,83.4z"/>
				<linearGradient id="SVGID_2_" gradientUnits="userSpaceOnUse" x1="37.4176" y1="108.4041" x2="38.0831" y2="108.4041">
					<stop  offset="0" style="stop-color:#FFFFFF"/>
					<stop  offset="2.313912e-03" style="stop-color:#FEFEFE"/>
					<stop  offset="0.1238" style="stop-color:#C3C3C3"/>
					<stop  offset="0.2476" style="stop-color:#8F8F8F"/>
					<stop  offset="0.372" style="stop-color:#636363"/>
					<stop  offset="0.4966" style="stop-color:#3F3F3F"/>
					<stop  offset="0.6214" style="stop-color:#242424"/>
					<stop  offset="0.7466" style="stop-color:#101010"/>
					<stop  offset="0.8724" style="stop-color:#040404"/>
					<stop  offset="1" style="stop-color:#000000"/>
				</linearGradient>
				<path class="st2" d="M38.1,120.5c0-0.3,0-23.4,0-23.9c0-0.5-0.1-1.4-0.7-1.9v27.4C38.2,121.6,38.1,120.8,38.1,120.5z"/>
				<linearGradient id="SVGID_3_" gradientUnits="userSpaceOnUse" x1="37.4176" y1="140.5816" x2="38.0831" y2="140.5816">
					<stop  offset="0" style="stop-color:#FFFFFF"/>
					<stop  offset="2.313912e-03" style="stop-color:#FEFEFE"/>
					<stop  offset="0.1238" style="stop-color:#C3C3C3"/>
					<stop  offset="0.2476" style="stop-color:#8F8F8F"/>
					<stop  offset="0.372" style="stop-color:#636363"/>
					<stop  offset="0.4966" style="stop-color:#3F3F3F"/>
					<stop  offset="0.6214" style="stop-color:#242424"/>
					<stop  offset="0.7466" style="stop-color:#101010"/>
					<stop  offset="0.8724" style="stop-color:#040404"/>
					<stop  offset="1" style="stop-color:#000000"/>
				</linearGradient>
				<path class="st3" d="M38.1,152.7c0-0.3,0-23.4,0-23.9c0-0.5-0.1-1.4-0.7-1.9v27.4C38.2,153.8,38.1,153,38.1,152.7z"/>
			</g>
			<g>
				<g>
					<linearGradient id="SVGID_4_" gradientUnits="userSpaceOnUse" x1="195.6532" y1="27.2705" x2="208.6273" y2="35.9792">
						<stop  offset="0" style="stop-color:#4D4D4D"/>
						<stop  offset="1" style="stop-color:#1A1A1A"/>
					</linearGradient>
					<path class="st4" d="M195,28.1c1.2,0.6,2.4,1.2,3.5,2c3.5,1.3,6.4,3.4,8.7,6.4c-1.6-2.8-3.8-5.2-6.3-7.2
						C199.1,28.2,197.4,27.9,195,28.1z"/>
					<linearGradient id="SVGID_5_" gradientUnits="userSpaceOnUse" x1="198.5188" y1="114.6917" x2="210.9249" y2="114.6917">
						<stop  offset="0" style="stop-color:#7C7D7D"/>
						<stop  offset="0.1383" style="stop-color:#7F8080"/>
						<stop  offset="0.26" style="stop-color:#898B8B"/>
						<stop  offset="0.3755" style="stop-color:#9A9C9D"/>
						<stop  offset="0.4871" style="stop-color:#B2B4B7"/>
						<stop  offset="0.595" style="stop-color:#D0D3D7"/>
						<stop  offset="0.7005" style="stop-color:#F5F9FF"/>
						<stop  offset="0.7017" style="stop-color:#F5F9FF"/>
						<stop  offset="0.7809" style="stop-color:#F3F6FC"/>
						<stop  offset="0.8306" style="stop-color:#EAEEF4"/>
						<stop  offset="0.8721" style="stop-color:#DDE0E5"/>
						<stop  offset="0.9091" style="stop-color:#C9CCD1"/>
						<stop  offset="0.9431" style="stop-color:#B0B2B6"/>
						<stop  offset="0.9745" style="stop-color:#919295"/>
						<stop  offset="1" style="stop-color:#737375"/>
					</linearGradient>
					<path class="st5" d="M210.9,199.3V49.7c0-4.8-1.3-9.3-3.6-13.2c-2.4-3.1-5.2-5.2-8.7-6.4c6.2,4.3,10.3,11.5,10.3,19.6v149.6
						L210.9,199.3z"/>
				</g>
				<g>
					<linearGradient id="SVGID_6_" gradientUnits="userSpaceOnUse" x1="40.8938" y1="35.7529" x2="54.0763" y2="27.003">
						<stop  offset="0" style="stop-color:#4D4D4D"/>
						<stop  offset="1" style="stop-color:#1A1A1A"/>
					</linearGradient>
					<path class="st6" d="M54.2,28.1c-1.2,0.6-2.4,1.2-3.5,2c-3.5,1.3-6.4,3.4-8.7,6.4c1.6-2.8,3.8-5.2,6.3-7.2
						C50.2,28.2,51.8,27.9,54.2,28.1z"/>
					<g>
						<linearGradient id="SVGID_7_" gradientUnits="userSpaceOnUse" x1="50.7435" y1="114.4521" x2="38.3162" y2="114.4521">
							<stop  offset="0" style="stop-color:#7C7D7D"/>
							<stop  offset="0.1383" style="stop-color:#7F8080"/>
							<stop  offset="0.26" style="stop-color:#898B8B"/>
							<stop  offset="0.3755" style="stop-color:#9A9C9D"/>
							<stop  offset="0.4871" style="stop-color:#B2B4B7"/>
							<stop  offset="0.595" style="stop-color:#D0D3D7"/>
							<stop  offset="0.7005" style="stop-color:#F5F9FF"/>
							<stop  offset="0.7017" style="stop-color:#F5F9FF"/>
							<stop  offset="0.7809" style="stop-color:#F3F6FC"/>
							<stop  offset="0.8306" style="stop-color:#EAEEF4"/>
							<stop  offset="0.8721" style="stop-color:#DDE0E5"/>
							<stop  offset="0.9091" style="stop-color:#C9CCD1"/>
							<stop  offset="0.9431" style="stop-color:#B0B2B6"/>
							<stop  offset="0.9745" style="stop-color:#919295"/>
							<stop  offset="1" style="stop-color:#737375"/>
						</linearGradient>
						<path class="st7" d="M38.4,198.8V49.7c0-4.8,1.3-9.3,3.6-13.2c2.4-3.1,5.2-5.2,8.7-6.4c-6.2,4.3-10.3,11.5-10.3,19.6v149.2
							L38.4,198.8z"/>
						<linearGradient id="SVGID_8_" gradientUnits="userSpaceOnUse" x1="124.6156" y1="29.4859" x2="124.6156" y2="23.8238">
							<stop  offset="0" style="stop-color:#BFC1C7;stop-opacity:0.7"/>
							<stop  offset="0.346" style="stop-color:#C2C4C9;stop-opacity:0.8038"/>
							<stop  offset="0.5671" style="stop-color:#CACCD2;stop-opacity:0.8701"/>
							<stop  offset="0.7531" style="stop-color:#D9DBDF;stop-opacity:0.9259"/>
							<stop  offset="0.9187" style="stop-color:#EEEFF3;stop-opacity:0.9756"/>
							<stop  offset="1" style="stop-color:#FBFCFF"/>
						</linearGradient>
						<path class="st8" d="M185.1,23.9h-60.4H64.2c-6,0-11.5,2.1-15.9,5.5c1.9-1.1,3.5-1.5,5.9-1.3c3-1.4,6.4-2.2,10-2.2h60.4h60.4
							c3.6,0,6.9,0.8,10,2.2c2.4-0.2,4,0.1,5.9,1.3C196.5,25.9,191,23.9,185.1,23.9z"/>
					</g>
				</g>
			</g>
			<path d="M210.7,144.1c0-0.3,0-38.4,0-38.9c0-0.5,0.1-1.4,0.9-1.9v42.4C210.6,145.2,210.7,144.3,210.7,144.1z"/>
			<g>
				<g>
					
						<linearGradient id="SVGID_9_" gradientUnits="userSpaceOnUse" x1="195.6532" y1="533.4992" x2="208.6273" y2="542.2079" gradientTransform="matrix(1 0 0 -1 0 904.801)">
						<stop  offset="0" style="stop-color:#4D4D4D"/>
						<stop  offset="1" style="stop-color:#1A1A1A"/>
					</linearGradient>
					<path class="st9" d="M195,370.5c1.2-0.6,2.4-1.2,3.5-2c3.5-1.3,6.4-3.4,8.7-6.4c-1.6,2.8-3.8,5.2-6.3,7.2
						C199.1,370.4,197.4,370.7,195,370.5z"/>
					<linearGradient id="SVGID_10_" gradientUnits="userSpaceOnUse" x1="198.6053" y1="283.8806" x2="210.8562" y2="283.8806">
						<stop  offset="0" style="stop-color:#7C7D7D"/>
						<stop  offset="0.1383" style="stop-color:#7F8080"/>
						<stop  offset="0.26" style="stop-color:#898B8B"/>
						<stop  offset="0.3755" style="stop-color:#9A9C9D"/>
						<stop  offset="0.4871" style="stop-color:#B2B4B7"/>
						<stop  offset="0.595" style="stop-color:#D0D3D7"/>
						<stop  offset="0.7005" style="stop-color:#F5F9FF"/>
						<stop  offset="0.7017" style="stop-color:#F5F9FF"/>
						<stop  offset="0.7809" style="stop-color:#F3F6FC"/>
						<stop  offset="0.8306" style="stop-color:#EAEEF4"/>
						<stop  offset="0.8721" style="stop-color:#DDE0E5"/>
						<stop  offset="0.9091" style="stop-color:#C9CCD1"/>
						<stop  offset="0.9431" style="stop-color:#B0B2B6"/>
						<stop  offset="0.9745" style="stop-color:#919295"/>
						<stop  offset="1" style="stop-color:#737375"/>
					</linearGradient>
					<path class="st10" d="M210.9,199.3v149.6c0,4.8-1.3,9.3-3.6,13.2c-2.4,3.1-5.2,5.2-8.7,6.4c6.2-4.3,10.3-11.5,10.3-19.6V199.3
						L210.9,199.3z"/>
				</g>
				<g>
					<linearGradient id="SVGID_11_" gradientUnits="userSpaceOnUse" x1="53.6963" y1="371.3801" x2="41.3684" y2="363.1067">
						<stop  offset="0" style="stop-color:#4D4D4D"/>
						<stop  offset="1" style="stop-color:#1A1A1A"/>
					</linearGradient>
					<path class="st11" d="M54.2,370.5c-1.2-0.6-2.4-1.2-3.5-2c-3.5-1.3-6.4-3.4-8.7-6.4c1.6,2.8,3.8,5.2,6.3,7.2
						C50.2,370.4,51.8,370.7,54.2,370.5z"/>
					<g>
						<linearGradient id="SVGID_12_" gradientUnits="userSpaceOnUse" x1="50.6401" y1="284.1202" x2="38.2777" y2="284.1202">
							<stop  offset="0" style="stop-color:#7C7D7D"/>
							<stop  offset="0.1383" style="stop-color:#7F8080"/>
							<stop  offset="0.26" style="stop-color:#898B8B"/>
							<stop  offset="0.3755" style="stop-color:#9A9C9D"/>
							<stop  offset="0.4871" style="stop-color:#B2B4B7"/>
							<stop  offset="0.595" style="stop-color:#D0D3D7"/>
							<stop  offset="0.7005" style="stop-color:#F5F9FF"/>
							<stop  offset="0.7017" style="stop-color:#F5F9FF"/>
							<stop  offset="0.7809" style="stop-color:#F3F6FC"/>
							<stop  offset="0.8306" style="stop-color:#EAEEF4"/>
							<stop  offset="0.8721" style="stop-color:#DDE0E5"/>
							<stop  offset="0.9091" style="stop-color:#C9CCD1"/>
							<stop  offset="0.9431" style="stop-color:#B0B2B6"/>
							<stop  offset="0.9745" style="stop-color:#919295"/>
							<stop  offset="1" style="stop-color:#737375"/>
						</linearGradient>
						<path class="st12" d="M38.4,199.7v149.2c0,4.8,1.3,9.3,3.6,13.2c2.4,3.1,5.2,5.2,8.7,6.4c-6.2-4.3-10.3-11.5-10.3-19.6V199.7
							L38.4,199.7z"/>
						
							<linearGradient id="SVGID_13_" gradientUnits="userSpaceOnUse" x1="124.6156" y1="535.7145" x2="124.6156" y2="530.0524" gradientTransform="matrix(1 0 0 -1 0 904.801)">
							<stop  offset="0" style="stop-color:#BFC1C7;stop-opacity:0.7"/>
							<stop  offset="0.346" style="stop-color:#C2C4C9;stop-opacity:0.8038"/>
							<stop  offset="0.5671" style="stop-color:#CACCD2;stop-opacity:0.8701"/>
							<stop  offset="0.7531" style="stop-color:#D9DBDF;stop-opacity:0.9259"/>
							<stop  offset="0.9187" style="stop-color:#EEEFF3;stop-opacity:0.9756"/>
							<stop  offset="1" style="stop-color:#FBFCFF"/>
						</linearGradient>
						<path class="st13" d="M185.1,374.7h-60.4H64.2c-6,0-11.5-2.1-15.9-5.5c1.9,1.1,3.5,1.5,5.9,1.3c3,1.4,6.4,2.2,10,2.2h60.4
							h60.4c3.6,0,6.9-0.8,10-2.2c2.4,0.2,4-0.1,5.9-1.3C196.5,372.7,191,374.7,185.1,374.7z"/>
					</g>
				</g>
			</g>
			<linearGradient id="SVGID_14_" gradientUnits="userSpaceOnUse" x1="40.8123" y1="199.1623" x2="208.4315" y2="199.1623">
				<stop  offset="0" style="stop-color:#2E2E2E"/>
				<stop  offset="6.534460e-02" style="stop-color:#000000"/>
				<stop  offset="0.1849" style="stop-color:#363636"/>
				<stop  offset="0.8005" style="stop-color:#363636"/>
				<stop  offset="0.9365" style="stop-color:#000000"/>
				<stop  offset="1" style="stop-color:#2E2E2E"/>
			</linearGradient>
			<path class="st14" d="M185.5,372H64.1c-12.8,0-23.3-10.4-23.3-23.3V49.4c0-12.7,10.3-23.1,23.1-23.1h121.3
				c12.9,0,23.3,10.4,23.3,23.3v299.4C208.4,361.7,198.2,372,185.5,372z M63.7,27.1c-12.2,0-22.1,9.9-22.1,22.1v299.5
				c0,12.4,10.1,22.5,22.5,22.5h121.5c12.2,0,22.1-9.9,22.1-22.1V49.6c0-12.4-10.1-22.5-22.5-22.5H63.7z"/>
			<linearGradient id="SVGID_15_" gradientUnits="userSpaceOnUse" x1="194.3574" y1="199.0962" x2="207.3694" y2="199.0962">
				<stop  offset="0" style="stop-color:#6B6C70;stop-opacity:0.7"/>
				<stop  offset="0.412" style="stop-color:#6D6E72;stop-opacity:0.8236"/>
				<stop  offset="0.5813" style="stop-color:#747579;stop-opacity:0.8744"/>
				<stop  offset="0.706" style="stop-color:#808185;stop-opacity:0.9118"/>
				<stop  offset="0.8089" style="stop-color:#929396;stop-opacity:0.9427"/>
				<stop  offset="0.8983" style="stop-color:#A9AAAC;stop-opacity:0.9695"/>
				<stop  offset="0.9769" style="stop-color:#C4C5C8;stop-opacity:0.9931"/>
				<stop  offset="1" style="stop-color:#CECFD1"/>
			</linearGradient>
			<path class="st15" d="M207.2,51.5c0-12.8-6.1-19.1-12.8-22c1.8,3.7,9.7,6.9,9.7,21.9v295.3c0,15-7.9,18.2-9.7,21.9
				c6.7-2.9,12.8-9.2,12.8-22l0.2-147.6L207.2,51.5z"/>
			
				<linearGradient id="SVGID_16_" gradientUnits="userSpaceOnUse" x1="1710.9718" y1="199.0962" x2="1723.9838" y2="199.0962" gradientTransform="matrix(-1 0 0 1 1766.3033 0)">
				<stop  offset="0" style="stop-color:#6B6C70;stop-opacity:0.7"/>
				<stop  offset="0.412" style="stop-color:#6D6E72;stop-opacity:0.8236"/>
				<stop  offset="0.5813" style="stop-color:#747579;stop-opacity:0.8744"/>
				<stop  offset="0.706" style="stop-color:#808185;stop-opacity:0.9118"/>
				<stop  offset="0.8089" style="stop-color:#929396;stop-opacity:0.9427"/>
				<stop  offset="0.8983" style="stop-color:#A9AAAC;stop-opacity:0.9695"/>
				<stop  offset="0.9769" style="stop-color:#C4C5C8;stop-opacity:0.9931"/>
				<stop  offset="1" style="stop-color:#CECFD1"/>
			</linearGradient>
			<path class="st16" d="M42.5,51.5c0-12.8,6.1-19.1,12.8-22c-1.8,3.7-9.7,6.9-9.7,21.9v295.3c0,15,7.9,18.2,9.7,21.9
				c-6.7-2.9-12.8-9.2-12.8-22l-0.2-147.6L42.5,51.5z"/>
			<linearGradient id="SVGID_17_" gradientUnits="userSpaceOnUse" x1="53.9294" y1="29.8734" x2="194.782" y2="29.8734">
				<stop  offset="0" style="stop-color:#000000;stop-opacity:0"/>
				<stop  offset="1.223741e-02" style="stop-color:#1F1F1F;stop-opacity:5.475402e-02"/>
				<stop  offset="3.481372e-02" style="stop-color:#535353;stop-opacity:0.1558"/>
				<stop  offset="5.839052e-02" style="stop-color:#818181;stop-opacity:0.2613"/>
				<stop  offset="8.251567e-02" style="stop-color:#A8A8A8;stop-opacity:0.3692"/>
				<stop  offset="0.1073" style="stop-color:#C8C8C8;stop-opacity:0.4801"/>
				<stop  offset="0.1329" style="stop-color:#E0E0E0;stop-opacity:0.5949"/>
				<stop  offset="0.1599" style="stop-color:#F1F1F1;stop-opacity:0.7152"/>
				<stop  offset="0.1888" style="stop-color:#FCFCFC;stop-opacity:0.8448"/>
				<stop  offset="0.2235" style="stop-color:#FFFFFF"/>
				<stop  offset="0.6845" style="stop-color:#FFFFFF"/>
				<stop  offset="0.7631" style="stop-color:#FFFFFF"/>
				<stop  offset="0.8418" style="stop-color:#FDFDFD;stop-opacity:0.6677"/>
				<stop  offset="0.8742" style="stop-color:#F6F6F6;stop-opacity:0.5312"/>
				<stop  offset="0.898" style="stop-color:#EAEAEA;stop-opacity:0.4306"/>
				<stop  offset="0.9177" style="stop-color:#D8D8D8;stop-opacity:0.3475"/>
				<stop  offset="0.9348" style="stop-color:#C1C1C1;stop-opacity:0.2754"/>
				<stop  offset="0.9501" style="stop-color:#A5A5A5;stop-opacity:0.2107"/>
				<stop  offset="0.9641" style="stop-color:#838383;stop-opacity:0.1517"/>
				<stop  offset="0.977" style="stop-color:#5C5C5C;stop-opacity:9.708208e-02"/>
				<stop  offset="0.9886" style="stop-color:#323232;stop-opacity:4.798812e-02"/>
				<stop  offset="0.9995" style="stop-color:#020202;stop-opacity:1.976430e-03"/>
				<stop  offset="1" style="stop-color:#000000;stop-opacity:0"/>
			</linearGradient>
			<path class="st17" d="M184.4,27.7h-60h-60c-3.7,0-7.3,0.9-10.4,2.5l0.8,1.6c2.7-1.1,6.3-1.8,9.7-1.8h60h60c3.4,0,6.7,0.7,9.5,2
				l0.9-2C191.7,28.6,188.1,27.7,184.4,27.7z"/>
			
				<linearGradient id="SVGID_18_" gradientUnits="userSpaceOnUse" x1="53.9294" y1="933.7626" x2="194.782" y2="933.7626" gradientTransform="matrix(1 0 0 -1 0 1301.8746)">
				<stop  offset="0" style="stop-color:#000000;stop-opacity:0"/>
				<stop  offset="1.223741e-02" style="stop-color:#1F1F1F;stop-opacity:5.475402e-02"/>
				<stop  offset="3.481372e-02" style="stop-color:#535353;stop-opacity:0.1558"/>
				<stop  offset="5.839052e-02" style="stop-color:#818181;stop-opacity:0.2613"/>
				<stop  offset="8.251567e-02" style="stop-color:#A8A8A8;stop-opacity:0.3692"/>
				<stop  offset="0.1073" style="stop-color:#C8C8C8;stop-opacity:0.4801"/>
				<stop  offset="0.1329" style="stop-color:#E0E0E0;stop-opacity:0.5949"/>
				<stop  offset="0.1599" style="stop-color:#F1F1F1;stop-opacity:0.7152"/>
				<stop  offset="0.1888" style="stop-color:#FCFCFC;stop-opacity:0.8448"/>
				<stop  offset="0.2235" style="stop-color:#FFFFFF"/>
				<stop  offset="0.6845" style="stop-color:#FFFFFF"/>
				<stop  offset="0.7631" style="stop-color:#FFFFFF"/>
				<stop  offset="0.8418" style="stop-color:#FDFDFD;stop-opacity:0.6677"/>
				<stop  offset="0.8742" style="stop-color:#F6F6F6;stop-opacity:0.5312"/>
				<stop  offset="0.898" style="stop-color:#EAEAEA;stop-opacity:0.4306"/>
				<stop  offset="0.9177" style="stop-color:#D8D8D8;stop-opacity:0.3475"/>
				<stop  offset="0.9348" style="stop-color:#C1C1C1;stop-opacity:0.2754"/>
				<stop  offset="0.9501" style="stop-color:#A5A5A5;stop-opacity:0.2107"/>
				<stop  offset="0.9641" style="stop-color:#838383;stop-opacity:0.1517"/>
				<stop  offset="0.977" style="stop-color:#5C5C5C;stop-opacity:9.708208e-02"/>
				<stop  offset="0.9886" style="stop-color:#323232;stop-opacity:4.798812e-02"/>
				<stop  offset="0.9995" style="stop-color:#020202;stop-opacity:1.976430e-03"/>
				<stop  offset="1" style="stop-color:#000000;stop-opacity:0"/>
			</linearGradient>
			<path class="st18" d="M184.4,370.3h-60h-60c-3.7,0-7.3-0.9-10.4-2.5l0.8-1.6c2.7,1.1,6.3,1.8,9.7,1.8h60h60c3.4,0,6.7-0.7,9.5-2
				l0.9,2C191.7,369.4,188.1,370.3,184.4,370.3z"/>
			<g>
				<path class="st19" d="M185.7,33.6h-16.3c-1.1,0-2.1,0.9-2.1,2.1v1.7c0,2.9-2.6,8.4-8.6,8.4c-6,0-64.5,0-67.9,0
					c-6.7,0-8.9-5.8-8.9-8.2v-1.9c0-1.1-0.9-2.1-2.1-2.1H63.4c-8.4,0-15.3,6.8-15.3,15.3v300.5c0,8.4,6.8,15.3,15.3,15.3h122.3
					c8.4,0,15.3-6.8,15.3-15.3V48.9C200.9,40.4,194.1,33.6,185.7,33.6z"/>
			</g>
			<g>
				<path class="st20" d="M135.4,36.8c0-0.1-0.1-0.2-0.2-0.3l-0.1,0.1L135.4,36.8z"/>
				<polygon class="st20" points="117.9,37.7 117.6,38 117.9,38.3 118,38.3 118.3,38 				"/>
				<polygon class="st20" points="117.4,38.3 117.5,38.3 117.4,38.2 				"/>
				
					<rect x="133.2" y="37.3" transform="matrix(0.7072 -0.707 0.707 0.7072 12.5414 105.3393)" class="st20" width="0.5" height="0.5"/>
				
					<rect x="132.2" y="37.3" transform="matrix(0.7071 -0.7071 0.7071 0.7071 12.2585 104.6496)" class="st20" width="0.5" height="0.5"/>
				
					<rect x="125.7" y="36.8" transform="matrix(0.7071 -0.7071 0.7071 0.7071 10.7056 99.8986)" class="st20" width="0.5" height="0.5"/>
				<path class="st20" d="M135,36.3c-0.1-0.1-0.2-0.2-0.4-0.2L135,36.3L135,36.3z"/>
				<polygon class="st20" points="119.9,37.7 119.6,38 119.9,38.3 120,38.3 120.3,38 				"/>
				<polygon class="st20" points="116.9,37.7 116.6,38 116.8,38.3 117,38.3 117.2,38 				"/>
				<polygon class="st20" points="118.4,38.3 118.5,38.3 118.4,38.2 				"/>
				<path class="st20" d="M134.4,38.3C134.4,38.3,134.5,38.2,134.4,38.3L134.4,38.3L134.4,38.3z"/>
				<polygon class="st20" points="134,37.7 133.6,38 133.9,38.3 134,38.3 134.3,38 				"/>
				<polygon class="st20" points="119.4,38.3 119.5,38.3 119.4,38.2 				"/>
				<path class="st20" d="M135.3,37.7c0.1-0.1,0.1-0.3,0.1-0.5l-0.3,0.3L135.3,37.7z"/>
				<path class="st20" d="M134.6,38l0.1,0.1c0.1-0.1,0.3-0.2,0.4-0.3l-0.2-0.2L134.6,38z"/>
				<polygon class="st20" points="118.9,37.7 118.6,38 118.9,38.3 119,38.3 119.3,38 				"/>
				
					<rect x="126.7" y="36.8" transform="matrix(0.7071 -0.7071 0.7071 0.7071 10.999 100.6069)" class="st20" width="0.5" height="0.5"/>
				<polygon class="st20" points="130.9,36.3 131.3,36 131.2,36 130.7,36 130.6,36 				"/>
				
					<rect x="128.2" y="37.3" transform="matrix(0.7071 -0.7071 0.7071 0.7071 11.0848 101.8162)" class="st20" width="0.5" height="0.5"/>
				
					<rect x="123.7" y="36.8" transform="matrix(0.7071 -0.7071 0.7071 0.7071 10.1187 98.4818)" class="st20" width="0.5" height="0.5"/>
				<path class="st20" d="M114.9,37.7l-0.3,0.3l0.2,0.2c0,0,0.1,0,0.1,0h0.1l0.2-0.2L114.9,37.7z"/>
				
					<rect x="129.2" y="37.3" transform="matrix(0.7071 -0.7071 0.7071 0.7071 11.3783 102.5245)" class="st20" width="0.5" height="0.5"/>
				
					<rect x="127.2" y="37.3" transform="matrix(0.707 -0.7072 0.7072 0.707 10.8013 101.1257)" class="st20" width="0.5" height="0.5"/>
				<polygon class="st20" points="134,36.3 134.3,36 134.2,36 133.7,36 133.6,36 				"/>
				
					<rect x="114.2" y="37.3" transform="matrix(0.7071 -0.7071 0.7071 0.7071 6.9771 91.8991)" class="st20" width="0.5" height="0.5"/>
				<polygon class="st20" points="129.9,36.3 130.3,36 130.2,36 129.7,36 129.6,36 				"/>
				<polygon class="st20" points="115.9,37.7 115.6,38 115.8,38.3 116,38.3 116.2,38 				"/>
				
					<rect x="131.2" y="37.3" transform="matrix(0.7071 -0.7071 0.7071 0.7071 11.9651 103.9412)" class="st20" width="0.5" height="0.5"/>
				<polygon class="st20" points="133,36.3 133.3,36 133.2,36 132.7,36 132.6,36 				"/>
				
					<rect x="124.7" y="36.8" transform="matrix(0.7071 -0.7071 0.7071 0.7071 10.4121 99.1901)" class="st20" width="0.5" height="0.5"/>
				<polygon class="st20" points="116.4,38.3 116.5,38.3 116.4,38.2 				"/>
				
					<rect x="130.2" y="37.3" transform="matrix(0.7071 -0.7071 0.7071 0.7071 11.6717 103.2328)" class="st20" width="0.5" height="0.5"/>
				<polygon class="st20" points="132,36.3 132.3,36 132.2,36 131.7,36 131.6,36 				"/>
				<polygon class="st20" points="115.4,38.3 115.5,38.3 115.4,38.2 				"/>
				<polygon class="st20" points="132.4,38.3 132.5,38.3 132.5,38.2 				"/>
				<polygon class="st20" points="127.9,37.7 127.6,38 127.9,38.3 128,38.3 128.3,38 				"/>
				
					<rect x="130.7" y="36.8" transform="matrix(0.7071 -0.7071 0.7071 0.7071 12.1726 103.4403)" class="st20" width="0.5" height="0.5"/>
				<polygon class="st20" points="123.4,38.3 123.5,38.3 123.4,38.2 				"/>
				<polygon class="st20" points="127.4,38.3 127.5,38.3 127.4,38.2 				"/>
				
					<rect x="128.7" y="36.8" transform="matrix(0.7071 -0.7071 0.7071 0.7071 11.5858 102.0237)" class="st20" width="0.5" height="0.5"/>
				<polygon class="st20" points="128.9,37.7 128.6,38 128.9,38.3 129,38.3 129.3,38 				"/>
				<polygon class="st20" points="128.4,38.3 128.5,38.3 128.4,38.2 				"/>
				<polygon class="st20" points="133.4,38.3 133.5,38.3 133.5,38.2 				"/>
				<polygon class="st20" points="124.9,37.7 124.6,38 124.9,38.3 125,38.3 125.3,38 				"/>
				
					<rect x="131.7" y="36.8" transform="matrix(0.7071 -0.7071 0.7071 0.7071 12.466 104.1487)" class="st20" width="0.5" height="0.5"/>
				<polygon class="st20" points="125.4,38.3 125.5,38.3 125.4,38.2 				"/>
				<polygon class="st20" points="125.9,37.7 125.6,38 125.9,38.3 126,38.3 126.3,38 				"/>
				
					<rect x="129.7" y="36.8" transform="matrix(0.707 -0.7072 0.7072 0.707 11.8893 102.7502)" class="st20" width="0.5" height="0.5"/>
				<polygon class="st20" points="123.9,37.7 123.6,38 123.9,38.3 124,38.3 124.3,38 				"/>
				<polygon class="st20" points="126.9,37.7 126.6,38 126.9,38.3 127,38.3 127.3,38 				"/>
				<polygon class="st20" points="126.4,38.3 126.5,38.3 126.4,38.2 				"/>
				<polygon class="st20" points="122.9,37.7 122.6,38 122.9,38.3 123,38.3 123.3,38 				"/>
				<polygon class="st20" points="120.9,37.7 120.6,38 120.9,38.3 121,38.3 121.3,38 				"/>
				<polygon class="st20" points="132,37.7 131.6,38 131.9,38.3 132,38.3 132.3,38 				"/>
				<polygon class="st20" points="128.9,36.3 129.3,36 129.2,36 128.7,36 128.6,36 				"/>
				
					<rect x="127.7" y="36.8" transform="matrix(0.7071 -0.7071 0.7071 0.7071 11.2923 101.3152)" class="st20" width="0.5" height="0.5"/>
				<polygon class="st20" points="129.4,38.3 129.5,38.3 129.4,38.2 				"/>
				
					<rect x="133.7" y="36.8" transform="matrix(0.7069 -0.7073 0.7073 0.7069 13.074 105.6028)" class="st20" width="0.5" height="0.5"/>
				<polygon class="st20" points="133,37.7 132.6,38 132.9,38.3 133,38.3 133.3,38 				"/>
				<polygon class="st20" points="131.4,38.3 131.5,38.3 131.5,38.2 				"/>
				<polygon class="st20" points="120.4,38.3 120.5,38.3 120.4,38.2 				"/>
				<polygon class="st20" points="129.9,37.7 129.6,38 129.9,38.3 130,38.3 130.3,38 				"/>
				<polygon class="st20" points="121.9,37.7 121.6,38 121.9,38.3 122,38.3 122.3,38 				"/>
				<polygon class="st20" points="122.4,38.3 122.5,38.3 122.4,38.2 				"/>
				<polygon class="st20" points="121.4,38.3 121.5,38.3 121.4,38.2 				"/>
				<polygon class="st20" points="130.9,37.7 130.6,38 130.9,38.3 131,38.3 131.3,38 				"/>
				
					<rect x="132.7" y="36.8" transform="matrix(0.7071 -0.7071 0.7071 0.7071 12.7594 104.857)" class="st20" width="0.5" height="0.5"/>
				<polygon class="st20" points="130.4,38.3 130.5,38.3 130.4,38.2 				"/>
				<polygon class="st20" points="124.4,38.3 124.5,38.3 124.4,38.2 				"/>
				
					<rect x="114.7" y="36.8" transform="matrix(0.707 -0.7072 0.7072 0.707 7.4865 92.1231)" class="st20" width="0.5" height="0.5"/>
				
					<rect x="116.2" y="37.3" transform="matrix(0.7071 -0.7071 0.7071 0.7071 7.5639 93.3158)" class="st20" width="0.5" height="0.5"/>
				
					<rect x="126.2" y="36.3" transform="matrix(0.707 -0.7072 0.7072 0.707 11.2162 100.1238)" class="st20" width="0.5" height="0.5"/>
				<polygon class="st20" points="118.9,36.3 119.3,36 119.2,36 118.7,36 118.6,36 				"/>
				
					<rect x="125.2" y="36.3" transform="matrix(0.707 -0.7072 0.7072 0.707 10.9227 99.4153)" class="st20" width="0.5" height="0.5"/>
				<polygon class="st20" points="116.9,36.3 117.2,36 117.2,36 116.7,36 116.6,36 				"/>
				
					<rect x="124.2" y="36.3" transform="matrix(0.7071 -0.7071 0.7071 0.7071 10.6195 98.6893)" class="st20" width="0.5" height="0.5"/>
				
					<rect x="115.2" y="37.3" transform="matrix(0.7071 -0.7071 0.7071 0.7071 7.2705 92.6075)" class="st20" width="0.5" height="0.5"/>
				<polygon class="st20" points="117.9,36.3 118.3,36 118.2,36 117.7,36 117.6,36 				"/>
				
					<rect x="115.7" y="36.8" transform="matrix(0.7071 -0.7071 0.7071 0.7071 7.7714 92.815)" class="st20" width="0.5" height="0.5"/>
				<polygon class="st20" points="120.9,36.3 121.3,36 121.2,36 120.7,36 120.6,36 				"/>
				
					<rect x="122.2" y="36.3" transform="matrix(0.7071 -0.7071 0.7071 0.7071 10.0327 97.2726)" class="st20" width="0.5" height="0.5"/>
				
					<rect x="118.2" y="37.3" transform="matrix(0.7071 -0.7071 0.7071 0.7071 8.1508 94.7326)" class="st20" width="0.5" height="0.5"/>
				<polygon class="st20" points="119.9,36.3 120.3,36 120.2,36 119.7,36 119.6,36 				"/>
				
					<rect x="123.2" y="36.3" transform="matrix(0.707 -0.7072 0.7072 0.707 10.3357 97.9984)" class="st20" width="0.5" height="0.5"/>
				
					<rect x="117.2" y="37.3" transform="matrix(0.7072 -0.707 0.707 0.7072 7.8486 94.0073)" class="st20" width="0.5" height="0.5"/>
				
					<rect x="131.2" y="36.3" transform="matrix(0.7071 -0.7071 0.7071 0.7071 12.6735 103.6478)" class="st20" width="0.5" height="0.5"/>
				
					<rect x="134.7" y="36.8" transform="matrix(0.7071 -0.7071 0.7071 0.7071 13.3462 106.2736)" class="st20" width="0.5" height="0.5"/>
				<path class="st20" d="M114.2,37l-0.3-0.3l-0.1,0.1c0,0.1-0.1,0.2-0.1,0.3c0,0,0,0.1,0,0.1l0.1,0.1L114.2,37z"/>
				
					<rect x="133.2" y="36.3" transform="matrix(0.7071 -0.7071 0.7071 0.7071 13.2604 105.0645)" class="st20" width="0.5" height="0.5"/>
				
					<rect x="134.2" y="36.3" transform="matrix(0.707 -0.7072 0.7072 0.707 13.5643 105.7916)" class="st20" width="0.5" height="0.5"/>
				
					<rect x="134.2" y="37.3" transform="matrix(0.707 -0.7072 0.7072 0.707 12.854 106.0815)" class="st20" width="0.5" height="0.5"/>
				<path class="st20" d="M114,37.8c0.1,0.1,0.2,0.2,0.3,0.3l0,0L114,37.8z"/>
				
					<rect x="127.2" y="36.3" transform="matrix(0.707 -0.7072 0.7072 0.707 11.5097 100.8322)" class="st20" width="0.5" height="0.5"/>
				
					<rect x="132.2" y="36.3" transform="matrix(0.7071 -0.7071 0.7071 0.7071 12.9669 104.3562)" class="st20" width="0.5" height="0.5"/>
				<polygon class="st20" points="115.9,36.3 116.2,36 116.2,36 115.7,36 115.6,36 				"/>
				
					<rect x="129.2" y="36.3" transform="matrix(0.7071 -0.7071 0.7071 0.7071 12.0866 102.2311)" class="st20" width="0.5" height="0.5"/>
				
					<rect x="128.2" y="36.3" transform="matrix(0.707 -0.7072 0.7072 0.707 11.8034 101.5407)" class="st20" width="0.5" height="0.5"/>
				
					<rect x="119.2" y="37.3" transform="matrix(0.7071 -0.7071 0.7071 0.7071 8.4442 95.4409)" class="st20" width="0.5" height="0.5"/>
				
					<rect x="130.2" y="36.3" transform="matrix(0.707 -0.7072 0.7072 0.707 12.3903 102.9576)" class="st20" width="0.5" height="0.5"/>
				<path class="st20" d="M115.2,36L115.2,36l-0.3-0.1c-0.1,0-0.2,0-0.3,0.1l0.3,0.3L115.2,36z"/>
				<polygon class="st20" points="124.9,36.3 125.3,36 125.2,36 124.7,36 124.6,36 				"/>
				
					<rect x="117.2" y="36.3" transform="matrix(0.7071 -0.7071 0.7071 0.7071 8.5657 93.7307)" class="st20" width="0.5" height="0.5"/>
				
					<rect x="124.2" y="37.3" transform="matrix(0.7071 -0.7071 0.7071 0.7071 9.9112 98.9827)" class="st20" width="0.5" height="0.5"/>
				
					<rect x="121.7" y="36.8" transform="matrix(0.7071 -0.7071 0.7071 0.7071 9.5319 97.0651)" class="st20" width="0.5" height="0.5"/>
				
					<rect x="118.2" y="36.3" transform="matrix(0.7071 -0.7071 0.7071 0.7071 8.8591 94.4392)" class="st20" width="0.5" height="0.5"/>
				
					<rect x="123.2" y="37.3" transform="matrix(0.7072 -0.707 0.707 0.7072 9.6084 98.2568)" class="st20" width="0.5" height="0.5"/>
				<polygon class="st20" points="126.9,36.3 127.3,36 127.2,36 126.7,36 126.6,36 				"/>
				<polygon class="st20" points="125.9,36.3 126.3,36 126.2,36 125.7,36 125.6,36 				"/>
				
					<rect x="120.7" y="36.8" transform="matrix(0.7071 -0.7071 0.7071 0.7071 9.2385 96.3568)" class="st20" width="0.5" height="0.5"/>
				
					<rect x="116.2" y="36.3" transform="matrix(0.7071 -0.7071 0.7071 0.7071 8.2722 93.0224)" class="st20" width="0.5" height="0.5"/>
				
					<rect x="115.2" y="36.3" transform="matrix(0.7071 -0.7071 0.7071 0.7071 7.9789 92.3141)" class="st20" width="0.5" height="0.5"/>
				
					<rect x="114.2" y="36.3" transform="matrix(0.707 -0.7072 0.7072 0.707 7.694 91.6222)" class="st20" width="0.5" height="0.5"/>
				
					<rect x="126.2" y="37.3" transform="matrix(0.7071 -0.7071 0.7071 0.7071 10.4981 100.3994)" class="st20" width="0.5" height="0.5"/>
				
					<rect x="125.2" y="37.3" transform="matrix(0.7071 -0.7071 0.7071 0.7071 10.2046 99.691)" class="st20" width="0.5" height="0.5"/>
				<polygon class="st20" points="127.9,36.3 128.3,36 128.2,36 127.7,36 127.6,36 				"/>
				
					<rect x="122.7" y="36.8" transform="matrix(0.7071 -0.7071 0.7071 0.7071 9.8253 97.7734)" class="st20" width="0.5" height="0.5"/>
				
					<rect x="121.2" y="36.3" transform="matrix(0.707 -0.7072 0.7072 0.707 9.7486 96.5815)" class="st20" width="0.5" height="0.5"/>
				
					<rect x="118.7" y="36.8" transform="matrix(0.7071 -0.7071 0.7071 0.7071 8.6517 94.94)" class="st20" width="0.5" height="0.5"/>
				<polygon class="st20" points="123.9,36.3 124.3,36 124.2,36 123.7,36 123.6,36 				"/>
				<polygon class="st20" points="122.9,36.3 123.3,36 123.2,36 122.7,36 122.6,36 				"/>
				
					<rect x="120.2" y="36.3" transform="matrix(0.707 -0.7072 0.7072 0.707 9.4552 95.8729)" class="st20" width="0.5" height="0.5"/>
				
					<rect x="117.7" y="36.8" transform="matrix(0.7071 -0.7071 0.7071 0.7071 8.3583 94.2317)" class="st20" width="0.5" height="0.5"/>
				
					<rect x="119.2" y="36.3" transform="matrix(0.707 -0.7072 0.7072 0.707 9.1615 95.1645)" class="st20" width="0.5" height="0.5"/>
				
					<rect x="121.2" y="37.3" transform="matrix(0.7071 -0.7071 0.7071 0.7071 9.031 96.8576)" class="st20" width="0.5" height="0.5"/>
				
					<rect x="119.7" y="36.8" transform="matrix(0.7072 -0.707 0.707 0.7072 8.936 95.6312)" class="st20" width="0.5" height="0.5"/>
				
					<rect x="116.7" y="36.8" transform="matrix(0.7071 -0.7071 0.7071 0.7071 8.0648 93.5233)" class="st20" width="0.5" height="0.5"/>
				<polygon class="st20" points="121.9,36.3 122.3,36 122.2,36 121.7,36 121.6,36 				"/>
				
					<rect x="122.2" y="37.3" transform="matrix(0.7071 -0.7071 0.7071 0.7071 9.3244 97.566)" class="st20" width="0.5" height="0.5"/>
				
					<rect x="120.2" y="37.3" transform="matrix(0.7071 -0.7071 0.7071 0.7071 8.7375 96.1493)" class="st20" width="0.5" height="0.5"/>
				<path class="st21" d="M114.4,37.9l-0.3-0.3l-0.2,0.2c0,0,0,0,0,0.1l0.3,0.3L114.4,37.9z"/>
				<path class="st21" d="M113.8,37.2c0,0.1,0,0.2,0,0.2l0.1-0.1L113.8,37.2z"/>
				<path class="st21" d="M114.4,38.2c0.1,0.1,0.2,0.1,0.4,0.1l-0.2-0.2L114.4,38.2z"/>
				<polygon class="st21" points="115.4,38.2 115.5,38.3 115.8,38.3 115.6,38 				"/>
				<rect x="115" y="37.5" transform="matrix(0.7071 -0.7071 0.7071 0.7071 7.02 92.5037)" class="st21" width="0.2" height="0.5"/>
				
					<rect x="114" y="36.5" transform="matrix(0.7073 -0.7069 0.7069 0.7073 7.4195 91.4717)" class="st21" width="0.2" height="0.5"/>
				
					<rect x="114.5" y="37" transform="matrix(0.7069 -0.7073 0.7073 0.7069 7.243 92.0332)" class="st21" width="0.2" height="0.5"/>
				<rect x="115" y="36.5" transform="matrix(0.7072 -0.707 0.707 0.7072 7.7199 92.1937)" class="st21" width="0.2" height="0.5"/>
				
					<rect x="116" y="37.5" transform="matrix(0.7069 -0.7073 0.7073 0.7069 7.3292 93.2429)" class="st21" width="0.2" height="0.5"/>
				<polygon class="st21" points="116.4,38.2 116.5,38.3 116.8,38.3 116.6,38 				"/>
				<rect x="115.5" y="37" transform="matrix(0.707 -0.7072 0.7072 0.707 7.5296 92.7279)" class="st21" width="0.2" height="0.5"/>
				<path class="st21" d="M114.7,36.5l0.2-0.2l-0.3-0.3c0,0,0,0,0,0l-0.2,0.2L114.7,36.5z"/>
				<polygon class="st21" points="117.4,38.2 117.5,38.3 117.9,38.3 117.6,38 				"/>
				
					<rect x="116" y="36.5" transform="matrix(0.7071 -0.7071 0.7071 0.7071 8.0218 92.9187)" class="st21" width="0.2" height="0.5"/>
				
					<rect x="117.1" y="37.5" transform="matrix(0.7071 -0.7071 0.7071 0.7071 7.6068 93.9204)" class="st21" width="0.2" height="0.5"/>
				
					<rect x="116.5" y="37" transform="matrix(0.7071 -0.7071 0.7071 0.7071 7.8144 93.4195)" class="st21" width="0.3" height="0.5"/>
				
					<rect x="115.5" y="36" transform="matrix(0.7071 -0.7071 0.7071 0.7071 8.2294 92.4178)" class="st21" width="0.2" height="0.5"/>
				<polygon class="st21" points="115.3,36 115.2,36 115.2,36 				"/>
				<polygon class="st21" points="118.4,38.2 118.5,38.3 118.9,38.3 118.6,38 				"/>
				
					<rect x="116.5" y="36" transform="matrix(0.7071 -0.7071 0.7071 0.7071 8.5227 93.1261)" class="st21" width="0.3" height="0.5"/>
				
					<rect x="118.1" y="37.5" transform="matrix(0.7071 -0.7071 0.7071 0.7071 7.9003 94.6288)" class="st21" width="0.2" height="0.5"/>
				
					<rect x="117.1" y="36.5" transform="matrix(0.7072 -0.707 0.707 0.7072 8.3065 93.6102)" class="st21" width="0.2" height="0.5"/>
				<rect x="117.6" y="37" transform="matrix(0.707 -0.7072 0.7072 0.707 8.1165 94.1448)" class="st21" width="0.2" height="0.5"/>
				<polygon class="st21" points="116.3,36 116.2,36 116.2,36 				"/>
				<rect x="117.6" y="36" transform="matrix(0.7072 -0.707 0.707 0.7072 8.8074 93.8177)" class="st21" width="0.2" height="0.5"/>
				
					<rect x="119.1" y="37.5" transform="matrix(0.7073 -0.7069 0.7069 0.7073 8.1745 95.2998)" class="st21" width="0.2" height="0.5"/>
				
					<rect x="118.6" y="37" transform="matrix(0.7071 -0.7071 0.7071 0.7071 8.4013 94.8363)" class="st21" width="0.2" height="0.5"/>
				<polygon class="st21" points="119.4,38.2 119.5,38.3 119.9,38.3 119.6,38 				"/>
				<polygon class="st21" points="117.3,36 117.2,36 117.2,36 				"/>
				
					<rect x="118.1" y="36.5" transform="matrix(0.7072 -0.707 0.707 0.7072 8.5999 94.3185)" class="st21" width="0.2" height="0.5"/>
				
					<rect x="118.6" y="36" transform="matrix(0.7071 -0.7071 0.7071 0.7071 9.1112 94.546)" class="st21" width="0.2" height="0.5"/>
				
					<rect x="120.1" y="37.5" transform="matrix(0.7071 -0.7071 0.7071 0.7071 8.487 96.0455)" class="st21" width="0.2" height="0.5"/>
				<polygon class="st21" points="118.3,36 118.2,36 118.3,36 				"/>
				
					<rect x="119.6" y="37" transform="matrix(0.7071 -0.7071 0.7071 0.7071 8.6946 95.5445)" class="st21" width="0.2" height="0.5"/>
				
					<rect x="119.1" y="36.5" transform="matrix(0.7071 -0.7071 0.7071 0.7071 8.902 95.0437)" class="st21" width="0.2" height="0.5"/>
				<polygon class="st21" points="120.4,38.2 120.5,38.3 120.9,38.3 120.6,38 				"/>
				<rect x="120.6" y="37" transform="matrix(0.7071 -0.7071 0.7071 0.7071 8.988 96.253)" class="st21" width="0.3" height="0.5"/>
				<rect x="119.6" y="36" transform="matrix(0.7072 -0.707 0.707 0.7072 9.3939 95.2342)" class="st21" width="0.2" height="0.5"/>
				
					<rect x="121.1" y="37.5" transform="matrix(0.7069 -0.7073 0.7073 0.7069 8.7972 96.7857)" class="st21" width="0.2" height="0.5"/>
				<polygon class="st21" points="121.4,38.2 121.5,38.3 121.9,38.3 121.6,38 				"/>
				<polygon class="st21" points="119.3,36 119.2,36 119.3,36 				"/>
				
					<rect x="120.1" y="36.5" transform="matrix(0.7072 -0.707 0.707 0.7072 9.1864 95.7349)" class="st21" width="0.2" height="0.5"/>
				
					<rect x="122.1" y="37.5" transform="matrix(0.7073 -0.7069 0.7069 0.7073 9.054 97.4242)" class="st21" width="0.2" height="0.5"/>
				<rect x="121.6" y="37" transform="matrix(0.7072 -0.707 0.707 0.7072 9.2723 96.9441)" class="st21" width="0.2" height="0.5"/>
				<polygon class="st21" points="122.4,38.2 122.5,38.3 122.9,38.3 122.6,38 				"/>
				<polygon class="st21" points="120.3,36 120.2,36 120.3,36 				"/>
				
					<rect x="120.6" y="36" transform="matrix(0.7071 -0.7071 0.7071 0.7071 9.6965 95.9596)" class="st21" width="0.2" height="0.5"/>
				
					<rect x="121.1" y="36.5" transform="matrix(0.7071 -0.7071 0.7071 0.7071 9.489 96.4605)" class="st21" width="0.2" height="0.5"/>
				
					<rect x="122.1" y="36.5" transform="matrix(0.7072 -0.707 0.707 0.7072 9.7729 97.1515)" class="st21" width="0.2" height="0.5"/>
				<rect x="122.6" y="37" transform="matrix(0.707 -0.7072 0.7072 0.707 9.5841 97.6871)" class="st21" width="0.2" height="0.5"/>
				<polygon class="st21" points="121.3,36 121.2,36 121.3,36 				"/>
				
					<rect x="121.6" y="36" transform="matrix(0.7071 -0.7071 0.7071 0.7071 9.9915 96.6712)" class="st21" width="0.3" height="0.5"/>
				<polygon class="st21" points="123.4,38.2 123.5,38.3 123.9,38.3 123.6,38 				"/>
				
					<rect x="123.1" y="37.5" transform="matrix(0.7071 -0.7071 0.7071 0.7071 9.3673 98.1706)" class="st21" width="0.2" height="0.5"/>
				<polygon class="st21" points="122.3,36 122.2,36 122.3,36 				"/>
				
					<rect x="123.1" y="36.5" transform="matrix(0.7072 -0.707 0.707 0.7072 10.0664 97.8597)" class="st21" width="0.2" height="0.5"/>
				
					<rect x="123.6" y="37" transform="matrix(0.7071 -0.7071 0.7071 0.7071 9.8683 98.3781)" class="st21" width="0.2" height="0.5"/>
				<polygon class="st21" points="124.4,38.2 124.5,38.3 124.9,38.3 124.6,38 				"/>
				
					<rect x="122.6" y="36" transform="matrix(0.7071 -0.7071 0.7071 0.7071 10.2832 97.3763)" class="st21" width="0.2" height="0.5"/>
				
					<rect x="124.1" y="37.5" transform="matrix(0.7069 -0.7073 0.7073 0.7069 9.6781 98.9114)" class="st21" width="0.2" height="0.5"/>
				<polygon class="st21" points="125.4,38.2 125.5,38.3 125.9,38.3 125.6,38 				"/>
				
					<rect x="124.6" y="37" transform="matrix(0.7071 -0.7071 0.7071 0.7071 10.1617 99.0864)" class="st21" width="0.2" height="0.5"/>
				<polygon class="st21" points="123.3,36 123.2,36 123.3,36 				"/>
				
					<rect x="124.1" y="36.5" transform="matrix(0.7071 -0.7071 0.7071 0.7071 10.3691 98.5855)" class="st21" width="0.2" height="0.5"/>
				
					<rect x="123.6" y="36" transform="matrix(0.7071 -0.7071 0.7071 0.7071 10.5767 98.0847)" class="st21" width="0.3" height="0.5"/>
				
					<rect x="125.1" y="37.5" transform="matrix(0.7069 -0.7073 0.7073 0.7069 9.9716 99.6199)" class="st21" width="0.2" height="0.5"/>
				<polygon class="st21" points="126.4,38.2 126.5,38.3 126.9,38.3 126.6,38 				"/>
				<polygon class="st21" points="124.3,36 124.2,36 124.3,36 				"/>
				
					<rect x="125.1" y="36.5" transform="matrix(0.7071 -0.7071 0.7071 0.7071 10.6625 99.2938)" class="st21" width="0.2" height="0.5"/>
				
					<rect x="125.6" y="37" transform="matrix(0.7071 -0.7071 0.7071 0.7071 10.4551 99.7948)" class="st21" width="0.3" height="0.5"/>
				
					<rect x="126.1" y="37.5" transform="matrix(0.7069 -0.7073 0.7073 0.7069 10.2653 100.3284)" class="st21" width="0.2" height="0.5"/>
				<rect x="124.6" y="36" transform="matrix(0.7071 -0.7071 0.7071 0.7071 10.87 98.793)" class="st21" width="0.3" height="0.5"/>
				<polygon class="st21" points="127.4,38.2 127.5,38.3 127.9,38.3 127.6,38 				"/>
				<polygon class="st21" points="125.3,36 125.2,36 125.3,36 				"/>
				
					<rect x="125.6" y="36" transform="matrix(0.7071 -0.7071 0.7071 0.7071 11.1635 99.5014)" class="st21" width="0.2" height="0.5"/>
				
					<rect x="126.6" y="37" transform="matrix(0.7072 -0.707 0.707 0.7072 10.7388 100.4853)" class="st21" width="0.2" height="0.5"/>
				
					<rect x="127.1" y="37.5" transform="matrix(0.7071 -0.7071 0.7071 0.7071 10.5377 100.9978)" class="st21" width="0.2" height="0.5"/>
				
					<rect x="126.1" y="36.5" transform="matrix(0.7071 -0.7071 0.7071 0.7071 10.956 100.0023)" class="st21" width="0.2" height="0.5"/>
				
					<rect x="126.6" y="36" transform="matrix(0.7071 -0.7071 0.7071 0.7071 11.4586 100.2131)" class="st21" width="0.3" height="0.5"/>
				
					<rect x="128.1" y="37.5" transform="matrix(0.7071 -0.7071 0.7071 0.7071 10.8343 101.7124)" class="st21" width="0.3" height="0.5"/>
				<polygon class="st21" points="128.4,38.2 128.5,38.3 128.9,38.3 128.6,38 				"/>
				<polygon class="st21" points="126.3,36 126.2,36 126.3,36 				"/>
				
					<rect x="127.6" y="37" transform="matrix(0.7071 -0.7071 0.7071 0.7071 11.0418 101.2114)" class="st21" width="0.3" height="0.5"/>
				
					<rect x="127.1" y="36.5" transform="matrix(0.7071 -0.7071 0.7071 0.7071 11.2493 100.7106)" class="st21" width="0.2" height="0.5"/>
				
					<rect x="127.6" y="36" transform="matrix(0.7071 -0.7071 0.7071 0.7071 11.7503 100.9181)" class="st21" width="0.2" height="0.5"/>
				<polygon class="st21" points="127.3,36 127.2,36 127.3,36 				"/>
				
					<rect x="129.1" y="37.5" transform="matrix(0.7069 -0.7073 0.7073 0.7069 11.1461 102.4542)" class="st21" width="0.2" height="0.5"/>
				
					<rect x="128.1" y="36.5" transform="matrix(0.7072 -0.707 0.707 0.7072 11.5329 101.4009)" class="st21" width="0.2" height="0.5"/>
				
					<rect x="128.6" y="37" transform="matrix(0.7071 -0.7071 0.7071 0.7071 11.3353 101.9199)" class="st21" width="0.2" height="0.5"/>
				<polygon class="st21" points="129.4,38.2 129.5,38.3 129.9,38.3 129.6,38 				"/>
				
					<rect x="130.1" y="37.5" transform="matrix(0.7071 -0.7071 0.7071 0.7071 11.4179 103.1228)" class="st21" width="0.2" height="0.5"/>
				
					<rect x="129.1" y="36.5" transform="matrix(0.7072 -0.707 0.707 0.7072 11.8262 102.1093)" class="st21" width="0.2" height="0.5"/>
				<polygon class="st21" points="130.4,38.2 130.5,38.3 130.9,38.3 130.6,38 				"/>
				
					<rect x="128.6" y="36" transform="matrix(0.707 -0.7072 0.7072 0.707 12.0539 101.6444)" class="st21" width="0.2" height="0.5"/>
				
					<rect x="129.6" y="37" transform="matrix(0.7071 -0.7071 0.7071 0.7071 11.6288 102.6283)" class="st21" width="0.3" height="0.5"/>
				<polygon class="st21" points="128.3,36 128.2,36 128.3,36 				"/>
				
					<rect x="129.6" y="36" transform="matrix(0.707 -0.7072 0.7072 0.707 12.3491 102.3563)" class="st21" width="0.3" height="0.5"/>
				<polygon class="st21" points="131.5,38.2 131.5,38.3 131.9,38.3 131.6,38 				"/>
				<polygon class="st21" points="129.3,36 129.2,36 129.3,36 				"/>
				
					<rect x="130.1" y="36.5" transform="matrix(0.7071 -0.7071 0.7071 0.7071 12.1296 102.8357)" class="st21" width="0.2" height="0.5"/>
				
					<rect x="131.1" y="37.5" transform="matrix(0.7069 -0.7073 0.7073 0.7069 11.7333 103.8713)" class="st21" width="0.2" height="0.5"/>
				
					<rect x="130.6" y="37" transform="matrix(0.7071 -0.7071 0.7071 0.7071 11.9221 103.3365)" class="st21" width="0.3" height="0.5"/>
				
					<rect x="131.1" y="36.5" transform="matrix(0.7072 -0.707 0.707 0.7072 12.4128 103.5257)" class="st21" width="0.2" height="0.5"/>
				
					<rect x="132.1" y="37.5" transform="matrix(0.7069 -0.7073 0.7073 0.7069 12.027 104.5799)" class="st21" width="0.2" height="0.5"/>
				
					<rect x="130.6" y="36" transform="matrix(0.7071 -0.7071 0.7071 0.7071 12.6305 103.0432)" class="st21" width="0.2" height="0.5"/>
				<polygon class="st21" points="132.5,38.2 132.5,38.3 132.9,38.3 132.6,38 				"/>
				<polygon class="st21" points="130.3,36 130.2,36 130.3,36 				"/>
				
					<rect x="131.6" y="37" transform="matrix(0.707 -0.7072 0.7072 0.707 12.2259 104.0634)" class="st21" width="0.2" height="0.5"/>
				
					<rect x="131.6" y="36" transform="matrix(0.707 -0.7072 0.7072 0.707 12.9344 103.7698)" class="st21" width="0.2" height="0.5"/>
				
					<rect x="133.1" y="37.5" transform="matrix(0.7075 -0.7067 0.7067 0.7075 12.2633 105.1858)" class="st21" width="0.3" height="0.5"/>
				
					<rect x="132.6" y="37" transform="matrix(0.7071 -0.7071 0.7071 0.7071 12.509 104.7533)" class="st21" width="0.2" height="0.5"/>
				<polygon class="st21" points="131.3,36 131.2,36 131.3,36 				"/>
				<polygon class="st21" points="133.5,38.2 133.5,38.3 133.9,38.3 133.6,38 				"/>
				
					<rect x="132.1" y="36.5" transform="matrix(0.7071 -0.7071 0.7071 0.7071 12.7164 104.2524)" class="st21" width="0.2" height="0.5"/>
				<polygon class="st21" points="132.3,36 132.2,36 132.3,36 				"/>
				
					<rect x="132.6" y="36" transform="matrix(0.707 -0.7072 0.7072 0.707 13.2279 104.4783)" class="st21" width="0.3" height="0.5"/>
				
					<rect x="133.1" y="36.5" transform="matrix(0.7071 -0.7071 0.7071 0.7071 13.01 104.9608)" class="st21" width="0.3" height="0.5"/>
				
					<rect x="134.1" y="37.5" transform="matrix(0.7071 -0.7071 0.7071 0.7071 12.5951 105.9626)" class="st21" width="0.3" height="0.5"/>
				<path class="st21" d="M134.5,38.2L134.5,38.2c0.1,0,0.2,0,0.3,0l-0.1-0.1L134.5,38.2z"/>
				
					<rect x="133.6" y="37" transform="matrix(0.7071 -0.7071 0.7071 0.7071 12.8025 105.4617)" class="st21" width="0.3" height="0.5"/>
				<polygon class="st21" points="133.3,36 133.2,36 133.3,36 				"/>
				<path class="st21" d="M135,37.7l0.2,0.2c0.1-0.1,0.1-0.1,0.1-0.2l-0.2-0.2L135,37.7z"/>
				
					<rect x="133.6" y="36" transform="matrix(0.7072 -0.707 0.707 0.7072 13.5001 105.1496)" class="st21" width="0.3" height="0.5"/>
				
					<rect x="134.1" y="36.5" transform="matrix(0.707 -0.7072 0.7072 0.707 13.3139 105.6879)" class="st21" width="0.3" height="0.5"/>
				
					<rect x="134.6" y="37" transform="matrix(0.7072 -0.707 0.707 0.7072 13.0851 106.1511)" class="st21" width="0.3" height="0.5"/>
				<path class="st21" d="M135,36.7l0.3,0.3l0.1-0.1c0,0,0-0.1,0-0.1l-0.3-0.3L135,36.7z"/>
				<path class="st21" d="M134.8,36.5l0.2-0.2l-0.3-0.3c0,0,0,0,0,0l-0.2,0.2L134.8,36.5z"/>
				<path class="st21" d="M134.3,36C134.3,36,134.3,36,134.3,36L134.3,36L134.3,36L134.3,36z"/>
				<path class="st22" d="M114.4,36.2L114.4,36.2c-0.2,0-0.3,0.1-0.4,0.2l0.1,0.1L114.4,36.2z"/>
				<path class="st22" d="M113.9,36.7c0,0,0,0.1,0,0.1L113.9,36.7L113.9,36.7z"/>
				<path class="st22" d="M114.1,36.5L114.1,36.5c-0.1,0-0.2,0-0.2,0.1l0.1,0.1L114.1,36.5z"/>
				<path class="st22" d="M114.6,36c-0.1,0-0.2,0.1-0.2,0.1l0.1,0.1L114.6,36z"/>
				<polygon class="st22" points="115.7,36 115.5,36 115.6,36 				"/>
				
					<rect x="114.4" y="36.7" transform="matrix(0.7071 -0.7071 0.7071 0.7071 7.5818 91.8561)" class="st22" width="0.5" height="0.2"/>
				
					<rect x="114.9" y="36.2" transform="matrix(0.7071 -0.7071 0.7071 0.7071 8.0827 92.0636)" class="st22" width="0.5" height="0.2"/>
				
					<rect x="113.9" y="37.2" transform="matrix(0.7071 -0.7071 0.7071 0.7071 7.0809 91.6486)" class="st22" width="0.5" height="0.3"/>
				<path class="st22" d="M113.9,37.4L113.9,37.4c-0.1,0.2,0,0.3,0,0.3l0.2-0.2L113.9,37.4z"/>
				
					<rect x="114.3" y="36.9" transform="matrix(0.7071 -0.7071 0.7071 0.7071 7.3313 91.7523)" class="st22" width="0.2" height="0.2"/>
				
					<rect x="114.8" y="36.4" transform="matrix(0.7069 -0.7073 0.7073 0.7069 7.8479 91.9901)" class="st22" width="0.2" height="0.2"/>
				<polygon class="st22" points="115.4,36.2 115.6,36 115.5,36 115.3,36 115.2,36 				"/>
				
					<rect x="115.4" y="36.7" transform="matrix(0.7073 -0.7069 0.7069 0.7073 7.8594 92.534)" class="st22" width="0.5" height="0.2"/>
				
					<rect x="114.9" y="37.2" transform="matrix(0.7072 -0.707 0.707 0.7072 7.3658 92.3404)" class="st22" width="0.5" height="0.2"/>
				<polygon class="st22" points="116.7,36 116.5,36 116.6,36 				"/>
				
					<rect x="115.9" y="36.2" transform="matrix(0.7073 -0.7069 0.7069 0.7073 8.36 92.7415)" class="st22" width="0.5" height="0.2"/>
				
					<rect x="114.4" y="37.7" transform="matrix(0.7073 -0.7069 0.7069 0.7073 6.858 92.1191)" class="st22" width="0.5" height="0.2"/>
				<path class="st22" d="M114.2,38L114.2,38C114.2,38,114.3,38,114.2,38L114.2,38z"/>
				<path class="st22" d="M114.4,37.9l-0.2,0.2l0,0c0.1,0,0.1,0.1,0.2,0.1l0.1-0.1L114.4,37.9z"/>
				
					<rect x="114.8" y="37.4" transform="matrix(0.7069 -0.7073 0.7073 0.7069 7.1392 92.2838)" class="st22" width="0.2" height="0.2"/>
				
					<rect x="115.3" y="36.9" transform="matrix(0.7071 -0.7071 0.7071 0.7071 7.6247 92.4608)" class="st22" width="0.2" height="0.2"/>
				
					<rect x="115.8" y="36.4" transform="matrix(0.7071 -0.7071 0.7071 0.7071 8.1256 92.6683)" class="st22" width="0.2" height="0.2"/>
				<polygon class="st22" points="116.4,36.2 116.6,36 116.5,36 116.3,36 116.2,36 				"/>
				
					<rect x="116.4" y="36.7" transform="matrix(0.7069 -0.7073 0.7073 0.7069 8.1845 93.3035)" class="st22" width="0.5" height="0.2"/>
				
					<rect x="116.9" y="36.2" transform="matrix(0.7071 -0.7071 0.7071 0.7071 8.6695 93.4803)" class="st22" width="0.5" height="0.3"/>
				
					<rect x="115.4" y="37.7" transform="matrix(0.7071 -0.7071 0.7071 0.7071 7.1668 92.858)" class="st22" width="0.5" height="0.2"/>
				<polygon class="st22" points="115.2,38 115,38.3 115.4,38.3 115.4,38.2 				"/>
				<polygon class="st22" points="117.7,36 117.6,36 117.6,36 				"/>
				
					<rect x="115.9" y="37.2" transform="matrix(0.7071 -0.7071 0.7071 0.7071 7.6677 93.0654)" class="st22" width="0.5" height="0.2"/>
				
					<rect x="115.3" y="37.9" transform="matrix(0.7071 -0.7071 0.7071 0.7071 6.9163 92.7542)" class="st22" width="0.2" height="0.2"/>
				
					<rect x="115.8" y="37.4" transform="matrix(0.7069 -0.7073 0.7073 0.7069 7.4329 92.9924)" class="st22" width="0.2" height="0.2"/>
				
					<rect x="116.3" y="36.9" transform="matrix(0.7071 -0.7071 0.7071 0.7071 7.9181 93.1691)" class="st22" width="0.2" height="0.2"/>
				
					<rect x="116.8" y="36.4" transform="matrix(0.7069 -0.7073 0.7073 0.7069 8.4351 93.4072)" class="st22" width="0.2" height="0.2"/>
				<polygon class="st22" points="117.4,36.2 117.6,36 117.6,36 117.3,36 117.2,36 				"/>
				<polygon class="st22" points="118.7,36 118.6,36 118.6,36 				"/>
				
					<rect x="116.4" y="37.7" transform="matrix(0.7069 -0.7073 0.7073 0.7069 7.476 93.5971)" class="st22" width="0.5" height="0.2"/>
				
					<rect x="116.9" y="37.2" transform="matrix(0.7071 -0.7071 0.7071 0.7071 7.9611 93.7737)" class="st22" width="0.5" height="0.2"/>
				<polygon class="st22" points="116.2,38 116,38.3 116.4,38.3 116.4,38.2 				"/>
				
					<rect x="117.9" y="36.2" transform="matrix(0.7071 -0.7071 0.7071 0.7071 8.9629 94.1887)" class="st22" width="0.5" height="0.2"/>
				
					<rect x="117.4" y="36.7" transform="matrix(0.7073 -0.7069 0.7069 0.7073 8.4458 93.9503)" class="st22" width="0.5" height="0.2"/>
				
					<rect x="116.3" y="37.9" transform="matrix(0.7073 -0.7069 0.7069 0.7073 7.1971 93.4374)" class="st22" width="0.2" height="0.2"/>
				
					<rect x="116.8" y="37.4" transform="matrix(0.7071 -0.7071 0.7071 0.7071 7.7106 93.67)" class="st22" width="0.3" height="0.2"/>
				
					<rect x="117.3" y="36.9" transform="matrix(0.7071 -0.7071 0.7071 0.7071 8.2115 93.8774)" class="st22" width="0.2" height="0.2"/>
				
					<rect x="117.8" y="36.4" transform="matrix(0.7071 -0.7071 0.7071 0.7071 8.7125 94.0849)" class="st22" width="0.2" height="0.2"/>
				<polygon class="st22" points="118.4,36.2 118.6,36 118.6,36 118.3,36 118.3,36 				"/>
				<polygon class="st22" points="119.7,36 119.6,36 119.6,36 				"/>
				
					<rect x="117.9" y="37.2" transform="matrix(0.7071 -0.7071 0.7071 0.7071 8.2545 94.4822)" class="st22" width="0.5" height="0.3"/>
				
					<rect x="117.4" y="37.7" transform="matrix(0.7069 -0.7073 0.7073 0.7069 7.7695 94.3058)" class="st22" width="0.5" height="0.2"/>
				<polygon class="st22" points="117.2,38 117,38.3 117.4,38.3 117.4,38.2 				"/>
				
					<rect x="118.4" y="36.7" transform="matrix(0.7071 -0.7071 0.7071 0.7071 8.7554 94.6896)" class="st22" width="0.5" height="0.2"/>
				
					<rect x="118.9" y="36.2" transform="matrix(0.7071 -0.7071 0.7071 0.7071 9.2562 94.8971)" class="st22" width="0.5" height="0.3"/>
				
					<rect x="117.3" y="37.9" transform="matrix(0.7071 -0.7071 0.7071 0.7071 7.5031 94.1709)" class="st22" width="0.2" height="0.2"/>
				
					<rect x="117.8" y="37.4" transform="matrix(0.7069 -0.7073 0.7073 0.7069 8.0201 94.4095)" class="st22" width="0.2" height="0.2"/>
				
					<rect x="118.3" y="36.9" transform="matrix(0.7071 -0.7071 0.7071 0.7071 8.505 94.5859)" class="st22" width="0.2" height="0.2"/>
				
					<rect x="118.8" y="36.4" transform="matrix(0.7073 -0.7069 0.7069 0.7073 8.9892 94.7622)" class="st22" width="0.2" height="0.2"/>
				<polygon class="st22" points="119.4,36.2 119.6,36 119.6,36 119.3,36 119.3,36 				"/>
				<polygon class="st22" points="118.3,38 118,38.3 118.4,38.3 118.4,38.2 				"/>
				
					<rect x="118.4" y="37.7" transform="matrix(0.7071 -0.7071 0.7071 0.7071 8.0471 94.9829)" class="st22" width="0.5" height="0.2"/>
				<polygon class="st22" points="120.7,36 120.6,36 120.6,36 				"/>
				
					<rect x="119.5" y="36.7" transform="matrix(0.7073 -0.7069 0.7069 0.7073 9.0322 95.3665)" class="st22" width="0.5" height="0.2"/>
				
					<rect x="118.9" y="37.2" transform="matrix(0.7071 -0.7071 0.7071 0.7071 8.5479 95.1904)" class="st22" width="0.5" height="0.3"/>
				
					<rect x="120" y="36.2" transform="matrix(0.7071 -0.7071 0.7071 0.7071 9.5498 95.6053)" class="st22" width="0.5" height="0.2"/>
				
					<rect x="118.3" y="37.9" transform="matrix(0.7071 -0.7071 0.7071 0.7071 7.7996 94.8851)" class="st22" width="0.2" height="0.2"/>
				
					<rect x="118.8" y="37.4" transform="matrix(0.7069 -0.7073 0.7073 0.7069 8.3138 95.118)" class="st22" width="0.2" height="0.2"/>
				
					<rect x="119.3" y="36.9" transform="matrix(0.7069 -0.7073 0.7073 0.7069 8.8148 95.3254)" class="st22" width="0.2" height="0.2"/>
				
					<rect x="119.8" y="36.4" transform="matrix(0.7071 -0.7071 0.7071 0.7071 9.2993 95.5016)" class="st22" width="0.2" height="0.2"/>
				<polygon class="st22" points="120.4,36.2 120.6,36 120.6,36 120.3,36 120.3,36 				"/>
				<polygon class="st22" points="121.7,36 121.6,36 121.6,36 				"/>
				
					<rect x="120.5" y="36.7" transform="matrix(0.7071 -0.7071 0.7071 0.7071 9.3423 96.1063)" class="st22" width="0.5" height="0.2"/>
				
					<rect x="119.5" y="37.7" transform="matrix(0.7069 -0.7073 0.7073 0.7069 8.3568 95.7228)" class="st22" width="0.5" height="0.2"/>
				
					<rect x="121" y="36.2" transform="matrix(0.7073 -0.7069 0.7069 0.7073 9.8261 96.2823)" class="st22" width="0.5" height="0.2"/>
				<polygon class="st22" points="119.3,38 119,38.3 119.4,38.3 119.4,38.2 				"/>
				<rect x="120" y="37.2" transform="matrix(0.7072 -0.707 0.707 0.7072 8.8322 95.8816)" class="st22" width="0.5" height="0.2"/>
				
					<rect x="119.3" y="37.9" transform="matrix(0.7071 -0.7071 0.7071 0.7071 8.0931 95.5936)" class="st22" width="0.2" height="0.2"/>
				
					<rect x="119.8" y="37.4" transform="matrix(0.7069 -0.7073 0.7073 0.7069 8.6073 95.8265)" class="st22" width="0.2" height="0.2"/>
				
					<rect x="120.3" y="36.9" transform="matrix(0.7071 -0.7071 0.7071 0.7071 9.0918 96.0026)" class="st22" width="0.2" height="0.2"/>
				
					<rect x="120.8" y="36.4" transform="matrix(0.7069 -0.7073 0.7073 0.7069 9.6096 96.2415)" class="st22" width="0.2" height="0.2"/>
				<polygon class="st22" points="121.4,36.2 121.6,36 121.6,36 121.3,36 121.3,36 				"/>
				<polygon class="st22" points="122.7,36 122.6,36 122.6,36 				"/>
				
					<rect x="121" y="37.2" transform="matrix(0.7071 -0.7071 0.7071 0.7071 9.1348 96.6073)" class="st22" width="0.5" height="0.2"/>
				
					<rect x="122" y="36.2" transform="matrix(0.7071 -0.7071 0.7071 0.7071 10.1365 97.0222)" class="st22" width="0.5" height="0.3"/>
				
					<rect x="121.5" y="36.7" transform="matrix(0.7069 -0.7073 0.7073 0.7069 9.6526 96.8464)" class="st22" width="0.5" height="0.2"/>
				
					<rect x="120.5" y="37.7" transform="matrix(0.7071 -0.7071 0.7071 0.7071 8.6338 96.3998)" class="st22" width="0.5" height="0.3"/>
				<polygon class="st22" points="120.3,38 120,38.3 120.4,38.3 120.4,38.2 				"/>
				
					<rect x="120.3" y="37.9" transform="matrix(0.7071 -0.7071 0.7071 0.7071 8.3833 96.296)" class="st22" width="0.2" height="0.2"/>
				
					<rect x="120.8" y="37.4" transform="matrix(0.7071 -0.7071 0.7071 0.7071 8.8843 96.5035)" class="st22" width="0.2" height="0.2"/>
				
					<rect x="121.3" y="36.9" transform="matrix(0.7069 -0.7073 0.7073 0.7069 9.4021 96.7427)" class="st22" width="0.2" height="0.2"/>
				
					<rect x="121.8" y="36.4" transform="matrix(0.7073 -0.7069 0.7069 0.7073 9.8689 96.8867)" class="st22" width="0.3" height="0.3"/>
				<polygon class="st22" points="122.4,36.2 122.6,36 122.6,36 122.3,36 122.3,36 				"/>
				<polygon class="st22" points="121.3,38 121,38.3 121.4,38.3 121.4,38.2 				"/>
				
					<rect x="121.5" y="37.7" transform="matrix(0.7069 -0.7073 0.7073 0.7069 8.9441 97.1399)" class="st22" width="0.5" height="0.2"/>
				
					<rect x="122.5" y="36.7" transform="matrix(0.7073 -0.7069 0.7069 0.7073 9.9119 97.491)" class="st22" width="0.5" height="0.2"/>
				
					<rect x="123" y="36.2" transform="matrix(0.7073 -0.7069 0.7069 0.7073 10.4126 97.6985)" class="st22" width="0.5" height="0.2"/>
				
					<rect x="122" y="37.2" transform="matrix(0.7071 -0.7071 0.7071 0.7071 9.4282 97.3155)" class="st22" width="0.5" height="0.2"/>
				<polygon class="st22" points="123.7,36 123.6,36 123.6,36 				"/>
				
					<rect x="121.3" y="37.9" transform="matrix(0.7073 -0.7069 0.7069 0.7073 8.6633 96.9784)" class="st22" width="0.2" height="0.2"/>
				
					<rect x="121.8" y="37.4" transform="matrix(0.7071 -0.7071 0.7071 0.7071 9.1778 97.2118)" class="st22" width="0.2" height="0.2"/>
				
					<rect x="122.3" y="36.9" transform="matrix(0.7071 -0.7071 0.7071 0.7071 9.6786 97.4192)" class="st22" width="0.2" height="0.2"/>
				
					<rect x="122.8" y="36.4" transform="matrix(0.7071 -0.7071 0.7071 0.7071 10.1796 97.6267)" class="st22" width="0.2" height="0.2"/>
				<polygon class="st22" points="123.4,36.2 123.6,36 123.6,36 123.3,36 123.3,36 				"/>
				<polygon class="st22" points="122.3,38 122,38.3 122.4,38.3 122.4,38.2 				"/>
				
					<rect x="122.5" y="37.7" transform="matrix(0.7071 -0.7071 0.7071 0.7071 9.2207 97.8165)" class="st22" width="0.5" height="0.2"/>
				
					<rect x="123" y="37.2" transform="matrix(0.7071 -0.7071 0.7071 0.7071 9.7215 98.0239)" class="st22" width="0.5" height="0.3"/>
				
					<rect x="123.5" y="36.7" transform="matrix(0.7073 -0.7069 0.7069 0.7073 10.2051 98.1993)" class="st22" width="0.5" height="0.2"/>
				
					<rect x="124" y="36.2" transform="matrix(0.7071 -0.7071 0.7071 0.7071 10.7233 98.4389)" class="st22" width="0.5" height="0.3"/>
				<polygon class="st22" points="124.7,36 124.6,36 124.6,36 				"/>
				
					<rect x="122.3" y="37.9" transform="matrix(0.7071 -0.7071 0.7071 0.7071 8.9735 97.7188)" class="st22" width="0.2" height="0.2"/>
				
					<rect x="122.8" y="37.4" transform="matrix(0.7069 -0.7073 0.7073 0.7069 9.4881 97.9523)" class="st22" width="0.2" height="0.2"/>
				
					<rect x="123.3" y="36.9" transform="matrix(0.7069 -0.7073 0.7073 0.7069 9.9893 98.1598)" class="st22" width="0.2" height="0.2"/>
				
					<rect x="123.8" y="36.4" transform="matrix(0.7073 -0.7069 0.7069 0.7073 10.4554 98.303)" class="st22" width="0.2" height="0.2"/>
				<polygon class="st22" points="124.4,36.2 124.6,36 124.6,36 124.3,36 124.3,36 				"/>
				<polygon class="st22" points="123.3,38 123,38.3 123.4,38.3 123.4,38.2 				"/>
				<polygon class="st22" points="125.7,36 125.6,36 125.6,36 				"/>
				
					<rect x="124" y="37.2" transform="matrix(0.7071 -0.7071 0.7071 0.7071 10.015 98.7322)" class="st22" width="0.5" height="0.3"/>
				
					<rect x="124.5" y="36.7" transform="matrix(0.7071 -0.7071 0.7071 0.7071 10.5158 98.9397)" class="st22" width="0.5" height="0.2"/>
				
					<rect x="123.5" y="37.7" transform="matrix(0.7069 -0.7073 0.7073 0.7069 9.5312 98.5571)" class="st22" width="0.5" height="0.2"/>
				
					<rect x="125" y="36.2" transform="matrix(0.7071 -0.7071 0.7071 0.7071 11.0168 99.1471)" class="st22" width="0.5" height="0.2"/>
				
					<rect x="123.3" y="37.9" transform="matrix(0.7073 -0.7069 0.7069 0.7073 9.2465 98.3888)" class="st22" width="0.2" height="0.2"/>
				
					<rect x="123.8" y="37.4" transform="matrix(0.7069 -0.7073 0.7073 0.7069 9.7818 98.6608)" class="st22" width="0.2" height="0.3"/>
				
					<rect x="124.3" y="36.9" transform="matrix(0.7071 -0.7071 0.7071 0.7071 10.2654 98.836)" class="st22" width="0.2" height="0.2"/>
				
					<rect x="124.8" y="36.4" transform="matrix(0.7069 -0.7073 0.7073 0.7069 10.784 99.0757)" class="st22" width="0.2" height="0.2"/>
				<polygon class="st22" points="125.4,36.2 125.6,36 125.6,36 125.3,36 125.3,36 				"/>
				
					<rect x="124.5" y="37.7" transform="matrix(0.7069 -0.7073 0.7073 0.7069 9.8249 99.2656)" class="st22" width="0.5" height="0.2"/>
				
					<rect x="125" y="37.2" transform="matrix(0.7071 -0.7071 0.7071 0.7071 10.3084 99.4405)" class="st22" width="0.5" height="0.2"/>
				
					<rect x="125.5" y="36.7" transform="matrix(0.7071 -0.7071 0.7071 0.7071 10.8093 99.6481)" class="st22" width="0.5" height="0.2"/>
				<polygon class="st22" points="124.3,38 124,38.3 124.4,38.3 124.4,38.2 				"/>
				<polygon class="st22" points="126.7,36 126.6,36 126.6,36 				"/>
				
					<rect x="126" y="36.2" transform="matrix(0.7073 -0.7069 0.7069 0.7073 11.2922 99.823)" class="st22" width="0.5" height="0.2"/>
				
					<rect x="124.3" y="37.9" transform="matrix(0.7071 -0.7071 0.7071 0.7071 9.5604 99.1355)" class="st22" width="0.2" height="0.2"/>
				
					<rect x="124.8" y="37.4" transform="matrix(0.7069 -0.7073 0.7073 0.7069 10.0754 99.3693)" class="st22" width="0.2" height="0.2"/>
				
					<rect x="125.3" y="36.9" transform="matrix(0.7071 -0.7071 0.7071 0.7071 10.5588 99.5443)" class="st22" width="0.2" height="0.2"/>
				
					<rect x="125.8" y="36.4" transform="matrix(0.7069 -0.7073 0.7073 0.7069 11.0777 99.7843)" class="st22" width="0.2" height="0.2"/>
				<polygon class="st22" points="126.4,36.2 126.6,36 126.6,36 126.3,36 126.3,36 				"/>
				
					<rect x="126" y="37.2" transform="matrix(0.7071 -0.7071 0.7071 0.7071 10.6018 100.149)" class="st22" width="0.5" height="0.2"/>
				<polygon class="st22" points="125.3,38 125,38.3 125.4,38.3 125.4,38.2 				"/>
				
					<rect x="125.5" y="37.7" transform="matrix(0.7071 -0.7071 0.7071 0.7071 10.1008 99.9415)" class="st22" width="0.5" height="0.2"/>
				
					<rect x="127" y="36.2" transform="matrix(0.7071 -0.7071 0.7071 0.7071 11.6035 100.5639)" class="st22" width="0.5" height="0.3"/>
				
					<rect x="126.5" y="36.7" transform="matrix(0.7069 -0.7073 0.7073 0.7069 11.1206 100.3892)" class="st22" width="0.5" height="0.2"/>
				<polygon class="st22" points="127.7,36 127.6,36 127.6,36 				"/>
				
					<rect x="125.3" y="37.9" transform="matrix(0.7071 -0.7071 0.7071 0.7071 9.8504 99.8378)" class="st22" width="0.2" height="0.2"/>
				
					<rect x="125.8" y="37.4" transform="matrix(0.7071 -0.7071 0.7071 0.7071 10.3513 100.0453)" class="st22" width="0.2" height="0.2"/>
				
					<rect x="126.3" y="36.9" transform="matrix(0.7069 -0.7073 0.7073 0.7069 10.8702 100.2855)" class="st22" width="0.2" height="0.2"/>
				
					<rect x="126.8" y="36.4" transform="matrix(0.7071 -0.7071 0.7071 0.7071 11.353 100.4602)" class="st22" width="0.2" height="0.2"/>
				<polygon class="st22" points="127.4,36.2 127.6,36 127.6,36 127.3,36 127.3,36 				"/>
				
					<rect x="127.5" y="36.7" transform="matrix(0.7071 -0.7071 0.7071 0.7071 11.3961 101.0647)" class="st22" width="0.5" height="0.2"/>
				<polygon class="st22" points="128.7,36 128.6,36 128.6,36 				"/>
				<polygon class="st22" points="126.3,38 126,38.3 126.4,38.3 126.4,38.2 				"/>
				
					<rect x="128" y="36.2" transform="matrix(0.7069 -0.7073 0.7073 0.7069 11.9155 101.3051)" class="st22" width="0.5" height="0.2"/>
				
					<rect x="126.5" y="37.7" transform="matrix(0.7069 -0.7073 0.7073 0.7069 10.4122 100.6827)" class="st22" width="0.5" height="0.2"/>
				
					<rect x="127" y="37.2" transform="matrix(0.7071 -0.7071 0.7071 0.7071 10.8952 100.8572)" class="st22" width="0.5" height="0.2"/>
				
					<rect x="126.3" y="37.9" transform="matrix(0.7073 -0.7069 0.7069 0.7073 10.1296 100.5193)" class="st22" width="0.2" height="0.2"/>
				
					<rect x="126.8" y="37.4" transform="matrix(0.7071 -0.7071 0.7071 0.7071 10.6448 100.7535)" class="st22" width="0.2" height="0.2"/>
				
					<rect x="127.3" y="36.9" transform="matrix(0.7071 -0.7071 0.7071 0.7071 11.1456 100.9609)" class="st22" width="0.2" height="0.2"/>
				
					<rect x="127.8" y="36.4" transform="matrix(0.7071 -0.7071 0.7071 0.7071 11.6466 101.1684)" class="st22" width="0.2" height="0.2"/>
				<polygon class="st22" points="128.4,36.2 128.6,36 128.6,36 128.3,36 128.3,36 				"/>
				<polygon class="st22" points="127.3,38 127,38.3 127.4,38.3 127.4,38.2 				"/>
				
					<rect x="128.5" y="36.7" transform="matrix(0.7071 -0.7071 0.7071 0.7071 11.6896 101.7732)" class="st22" width="0.5" height="0.2"/>
				
					<rect x="128" y="37.2" transform="matrix(0.7071 -0.7071 0.7071 0.7071 11.1886 101.5657)" class="st22" width="0.5" height="0.3"/>
				<polygon class="st22" points="129.7,36 129.6,36 129.6,36 				"/>
				
					<rect x="129" y="36.2" transform="matrix(0.7071 -0.7071 0.7071 0.7071 12.1904 101.9806)" class="st22" width="0.5" height="0.2"/>
				
					<rect x="127.5" y="37.7" transform="matrix(0.7071 -0.7071 0.7071 0.7071 10.6877 101.3582)" class="st22" width="0.5" height="0.2"/>
				
					<rect x="127.3" y="37.9" transform="matrix(0.7071 -0.7071 0.7071 0.7071 10.4407 101.2607)" class="st22" width="0.2" height="0.2"/>
				
					<rect x="127.8" y="37.4" transform="matrix(0.7071 -0.7071 0.7071 0.7071 10.9381 101.4619)" class="st22" width="0.3" height="0.3"/>
				
					<rect x="128.3" y="36.9" transform="matrix(0.7069 -0.7073 0.7073 0.7069 11.4573 101.7025)" class="st22" width="0.2" height="0.2"/>
				
					<rect x="128.8" y="36.4" transform="matrix(0.7069 -0.7073 0.7073 0.7069 11.9585 101.91)" class="st22" width="0.2" height="0.2"/>
				<polygon class="st22" points="129.4,36.2 129.6,36 129.6,36 129.3,36 129.3,36 				"/>
				
					<rect x="128.5" y="37.7" transform="matrix(0.7073 -0.7069 0.7069 0.7073 10.9629 102.0333)" class="st22" width="0.5" height="0.2"/>
				<polygon class="st22" points="130.7,36 130.6,36 130.6,36 				"/>
				
					<rect x="129.5" y="36.7" transform="matrix(0.7069 -0.7073 0.7073 0.7069 12.0015 102.5149)" class="st22" width="0.5" height="0.2"/>
				<polygon class="st22" points="128.3,38 128,38.3 128.4,38.3 128.4,38.2 				"/>
				
					<rect x="130" y="36.2" transform="matrix(0.7073 -0.7069 0.7069 0.7073 12.465 102.6558)" class="st22" width="0.5" height="0.2"/>
				
					<rect x="129" y="37.2" transform="matrix(0.7071 -0.7071 0.7071 0.7071 11.482 102.2742)" class="st22" width="0.5" height="0.2"/>
				
					<rect x="128.3" y="37.9" transform="matrix(0.7069 -0.7073 0.7073 0.7069 10.7487 101.9962)" class="st22" width="0.2" height="0.2"/>
				
					<rect x="128.8" y="37.4" transform="matrix(0.7071 -0.7071 0.7071 0.7071 11.2316 102.1704)" class="st22" width="0.2" height="0.2"/>
				
					<rect x="129.3" y="36.9" transform="matrix(0.7071 -0.7071 0.7071 0.7071 11.7325 102.3779)" class="st22" width="0.2" height="0.2"/>
				
					<rect x="129.8" y="36.4" transform="matrix(0.7071 -0.7071 0.7071 0.7071 12.2333 102.5853)" class="st22" width="0.2" height="0.2"/>
				<polygon class="st22" points="130.4,36.2 130.6,36 130.6,36 130.3,36 130.3,36 				"/>
				<polygon class="st22" points="129.3,38 129,38.3 129.4,38.3 129.4,38.2 				"/>
				<polygon class="st22" points="131.7,36 131.6,36 131.6,36 				"/>
				
					<rect x="129.5" y="37.7" transform="matrix(0.7071 -0.7071 0.7071 0.7071 11.2746 102.7749)" class="st22" width="0.5" height="0.2"/>
				
					<rect x="130" y="37.2" transform="matrix(0.707 -0.7072 0.7072 0.707 11.7856 103.0006)" class="st22" width="0.5" height="0.2"/>
				
					<rect x="130.5" y="36.7" transform="matrix(0.7071 -0.7071 0.7071 0.7071 12.2763 103.1898)" class="st22" width="0.5" height="0.2"/>
				
					<rect x="131" y="36.2" transform="matrix(0.7071 -0.7071 0.7071 0.7071 12.7773 103.3973)" class="st22" width="0.5" height="0.2"/>
				
					<rect x="129.3" y="37.9" transform="matrix(0.7071 -0.7071 0.7071 0.7071 11.0276 102.6774)" class="st22" width="0.2" height="0.2"/>
				
					<rect x="129.8" y="37.4" transform="matrix(0.7071 -0.7071 0.7071 0.7071 11.5251 102.8787)" class="st22" width="0.2" height="0.2"/>
				
					<rect x="130.3" y="36.9" transform="matrix(0.7071 -0.7071 0.7071 0.7071 12.0258 103.0861)" class="st22" width="0.2" height="0.2"/>
				
					<rect x="130.8" y="36.4" transform="matrix(0.7069 -0.7073 0.7073 0.7069 12.5457 103.3271)" class="st22" width="0.2" height="0.2"/>
				<polygon class="st22" points="131.5,36.2 131.6,36 131.6,36 131.3,36 131.3,36 				"/>
				
					<rect x="132" y="36.2" transform="matrix(0.7071 -0.7071 0.7071 0.7071 13.0706 104.1058)" class="st22" width="0.5" height="0.3"/>
				<polygon class="st22" points="130.3,38 130,38.3 130.4,38.3 130.4,38.2 				"/>
				<polygon class="st22" points="132.7,36 132.6,36 132.6,36 				"/>
				
					<rect x="131.5" y="36.7" transform="matrix(0.7073 -0.7069 0.7069 0.7073 12.5508 103.8646)" class="st22" width="0.5" height="0.2"/>
				
					<rect x="131" y="37.2" transform="matrix(0.7071 -0.7071 0.7071 0.7071 12.0688 103.6908)" class="st22" width="0.5" height="0.2"/>
				
					<rect x="130.5" y="37.7" transform="matrix(0.7069 -0.7073 0.7073 0.7069 11.5866 103.517)" class="st22" width="0.5" height="0.2"/>
				
					<rect x="130.3" y="37.9" transform="matrix(0.7073 -0.7069 0.7069 0.7073 11.3026 103.3523)" class="st22" width="0.2" height="0.2"/>
				
					<rect x="130.8" y="37.4" transform="matrix(0.7071 -0.7071 0.7071 0.7071 11.8183 103.587)" class="st22" width="0.2" height="0.2"/>
				
					<rect x="131.3" y="36.9" transform="matrix(0.7071 -0.7071 0.7071 0.7071 12.3193 103.7945)" class="st22" width="0.2" height="0.2"/>
				
					<rect x="131.8" y="36.4" transform="matrix(0.7073 -0.7069 0.7069 0.7073 12.8011 103.9683)" class="st22" width="0.2" height="0.2"/>
				<polygon class="st22" points="132.5,36.2 132.6,36 132.6,36 132.3,36 132.3,36 				"/>
				
					<rect x="133" y="36.2" transform="matrix(0.7069 -0.7073 0.7073 0.7069 13.3835 104.8479)" class="st22" width="0.5" height="0.2"/>
				
					<rect x="132.5" y="36.7" transform="matrix(0.7071 -0.7071 0.7071 0.7071 12.8631 104.6066)" class="st22" width="0.5" height="0.2"/>
				
					<rect x="131.5" y="37.7" transform="matrix(0.7071 -0.7071 0.7071 0.7071 11.8613 104.1917)" class="st22" width="0.5" height="0.2"/>
				<polygon class="st22" points="131.3,38 131,38.3 131.4,38.3 131.5,38.2 				"/>
				<polygon class="st22" points="133.7,36 133.6,36 133.6,36 				"/>
				
					<rect x="132" y="37.2" transform="matrix(0.7071 -0.7071 0.7071 0.7071 12.3623 104.3991)" class="st22" width="0.5" height="0.3"/>
				
					<rect x="131.3" y="37.9" transform="matrix(0.7071 -0.7071 0.7071 0.7071 11.6108 104.0879)" class="st22" width="0.2" height="0.2"/>
				
					<rect x="131.8" y="37.4" transform="matrix(0.7069 -0.7073 0.7073 0.7069 12.1307 104.3293)" class="st22" width="0.2" height="0.3"/>
				
					<rect x="132.3" y="36.9" transform="matrix(0.7069 -0.7073 0.7073 0.7069 12.6318 104.5368)" class="st22" width="0.2" height="0.2"/>
				
					<rect x="132.8" y="36.4" transform="matrix(0.7071 -0.7071 0.7071 0.7071 13.1137 104.7103)" class="st22" width="0.3" height="0.2"/>
				<polygon class="st22" points="133.5,36.2 133.6,36 133.6,36 133.3,36 133.3,36 				"/>
				<polygon class="st22" points="132.3,38 132,38.3 132.4,38.3 132.5,38.2 				"/>
				
					<rect x="132.5" y="37.7" transform="matrix(0.7073 -0.7069 0.7069 0.7073 12.1358 104.866)" class="st22" width="0.5" height="0.3"/>
				
					<rect x="134" y="36.2" transform="matrix(0.7071 -0.7071 0.7071 0.7071 13.661 105.529)" class="st22" width="0.5" height="0.3"/>
				
					<rect x="133" y="37.2" transform="matrix(0.7071 -0.7071 0.7071 0.7071 12.6556 105.1075)" class="st22" width="0.5" height="0.3"/>
				
					<rect x="133.5" y="36.7" transform="matrix(0.7071 -0.7071 0.7071 0.7071 13.1566 105.3151)" class="st22" width="0.5" height="0.3"/>
				
					<rect x="132.3" y="37.9" transform="matrix(0.7071 -0.7071 0.7071 0.7071 11.9044 104.7963)" class="st22" width="0.2" height="0.3"/>
				
					<rect x="132.8" y="37.4" transform="matrix(0.7069 -0.7073 0.7073 0.7069 12.4243 105.0379)" class="st22" width="0.2" height="0.3"/>
				
					<rect x="133.3" y="36.9" transform="matrix(0.7071 -0.7071 0.7071 0.7071 12.9062 105.2113)" class="st22" width="0.3" height="0.3"/>
				
					<rect x="133.8" y="36.4" transform="matrix(0.7071 -0.7071 0.7071 0.7071 13.4069 105.4188)" class="st22" width="0.3" height="0.3"/>
				<path class="st22" d="M134.5,36.2l0.2-0.2c-0.1,0-0.2-0.1-0.3-0.1l0,0L134.5,36.2z"/>
				<path class="st22" d="M135.1,36.5L135.1,36.5c0-0.1,0-0.2-0.1-0.3l-0.1,0.1L135.1,36.5z"/>
				
					<rect x="134.5" y="36.7" transform="matrix(0.7071 -0.7071 0.7071 0.7071 13.4499 106.0232)" class="st22" width="0.5" height="0.3"/>
				
					<rect x="134" y="37.2" transform="matrix(0.7071 -0.7071 0.7071 0.7071 12.9492 105.8158)" class="st22" width="0.5" height="0.3"/>
				
					<rect x="133.5" y="37.7" transform="matrix(0.7071 -0.7071 0.7071 0.7071 12.4482 105.6083)" class="st22" width="0.5" height="0.3"/>
				<polygon class="st22" points="133.3,38 133,38.3 133.4,38.3 133.5,38.2 				"/>
				
					<rect x="133.3" y="37.9" transform="matrix(0.7071 -0.7071 0.7071 0.7071 12.1977 105.5046)" class="st22" width="0.3" height="0.3"/>
				
					<rect x="133.8" y="37.4" transform="matrix(0.7073 -0.7069 0.7069 0.7073 12.6795 105.6779)" class="st22" width="0.3" height="0.3"/>
				
					<rect x="134.3" y="36.9" transform="matrix(0.7071 -0.7071 0.7071 0.7071 13.1995 105.9195)" class="st22" width="0.3" height="0.3"/>
				
					<rect x="134.8" y="36.4" transform="matrix(0.7071 -0.7071 0.7071 0.7071 13.7003 106.1269)" class="st22" width="0.3" height="0.3"/>
				<path class="st22" d="M135,37.4l0.2,0.2l0.3-0.3c0,0,0,0,0,0l-0.2-0.2L135,37.4z"/>
				
					<rect x="134.5" y="37.7" transform="matrix(0.7071 -0.7071 0.7071 0.7071 12.7381 106.3101)" class="st22" width="0.5" height="0.3"/>
				<path class="st22" d="M134.3,38l-0.2,0.2h0.3c0,0,0.1,0,0.1,0l0.1-0.1L134.3,38z"/>
				
					<rect x="134.3" y="37.9" transform="matrix(0.7073 -0.7069 0.7069 0.7073 12.4721 106.1785)" class="st22" width="0.3" height="0.3"/>
				
					<rect x="134.8" y="37.4" transform="matrix(0.7073 -0.7069 0.7069 0.7073 12.9726 106.3859)" class="st22" width="0.3" height="0.3"/>
				<path class="st22" d="M135.4,37.2C135.4,37.2,135.5,37.1,135.4,37.2c0-0.1,0-0.2,0-0.3l-0.1,0.1L135.4,37.2z"/>
			</g>
			<g>
				<g>
					<path class="st20" d="M145.2,35.9c0.1,0.3,0.2,0.7,0.2,1.1c0,1.5-1.2,2.6-2.6,2.6c-0.1,0-0.1,0-0.2,0c0.2,0.1,0.4,0.1,0.6,0.1
						c1.3,0,2.4-1.1,2.4-2.4C145.7,36.7,145.5,36.2,145.2,35.9z"/>
				</g>
				<radialGradient id="SVGID_19_" cx="143.1378" cy="37.0397" r="1.555" gradientUnits="userSpaceOnUse">
					<stop  offset="0.6004" style="stop-color:#000000"/>
					<stop  offset="0.641" style="stop-color:#000005;stop-opacity:0.9087"/>
					<stop  offset="0.6904" style="stop-color:#000014;stop-opacity:0.7973"/>
					<stop  offset="0.7445" style="stop-color:#00002D;stop-opacity:0.6755"/>
					<stop  offset="0.8018" style="stop-color:#00004F;stop-opacity:0.5463"/>
					<stop  offset="0.8619" style="stop-color:#00007C;stop-opacity:0.4111"/>
					<stop  offset="0.9241" style="stop-color:#0000B2;stop-opacity:0.2709"/>
					<stop  offset="0.987" style="stop-color:#0000F1;stop-opacity:0.1292"/>
					<stop  offset="1" style="stop-color:#0000FF;stop-opacity:0.1"/>
				</radialGradient>
				<path class="st23" d="M144.7,37c0,0.9-0.7,1.6-1.6,1.6s-1.6-0.7-1.6-1.6c0-0.9,0.7-1.6,1.6-1.6S144.7,36.2,144.7,37z"/>
				<g>
					<linearGradient id="SVGID_20_" gradientUnits="userSpaceOnUse" x1="143.018" y1="36.2611" x2="144.4058" y2="37.9332">
						<stop  offset="0" style="stop-color:#5482FF"/>
						<stop  offset="8.282743e-02" style="stop-color:#4164C5;stop-opacity:0.9153"/>
						<stop  offset="0.1678" style="stop-color:#304A91;stop-opacity:0.8285"/>
						<stop  offset="0.2544" style="stop-color:#213365;stop-opacity:0.74"/>
						<stop  offset="0.3408" style="stop-color:#152140;stop-opacity:0.6516"/>
						<stop  offset="0.4271" style="stop-color:#0C1224;stop-opacity:0.5635"/>
						<stop  offset="0.5132" style="stop-color:#050810;stop-opacity:0.4754"/>
						<stop  offset="0.5991" style="stop-color:#010204;stop-opacity:0.3876"/>
						<stop  offset="0.6848" style="stop-color:#000000;stop-opacity:0.3"/>
					</linearGradient>
					<path class="st24" d="M143.8,35.9c-0.8,0.1-1.2,0.8-0.4,2C144.2,37.9,144.6,37.1,143.8,35.9z"/>
					<linearGradient id="SVGID_21_" gradientUnits="userSpaceOnUse" x1="142.0284" y1="36.311" x2="143.3947" y2="37.9572">
						<stop  offset="0" style="stop-color:#5482FF"/>
						<stop  offset="6.760991e-02" style="stop-color:#4164C5;stop-opacity:0.9153"/>
						<stop  offset="0.137" style="stop-color:#304A91;stop-opacity:0.8285"/>
						<stop  offset="0.2077" style="stop-color:#213365;stop-opacity:0.74"/>
						<stop  offset="0.2782" style="stop-color:#152140;stop-opacity:0.6516"/>
						<stop  offset="0.3486" style="stop-color:#0C1224;stop-opacity:0.5635"/>
						<stop  offset="0.4189" style="stop-color:#050810;stop-opacity:0.4754"/>
						<stop  offset="0.4891" style="stop-color:#010204;stop-opacity:0.3876"/>
						<stop  offset="0.559" style="stop-color:#000000;stop-opacity:0.3"/>
					</linearGradient>
					<path class="st25" d="M142.7,35.9c-0.9,0.3-1.1,1.6-0.2,2.2C142.4,37.3,143.1,36.5,142.7,35.9z"/>
				</g>
			</g>
			<linearGradient id="SVGID_22_" gradientUnits="userSpaceOnUse" x1="208.7738" y1="199.1401" x2="211.5874" y2="199.1401">
				<stop  offset="0" style="stop-color:#808080"/>
				<stop  offset="8.178127e-02" style="stop-color:#8C8C8C;stop-opacity:0.9836"/>
				<stop  offset="0.3108" style="stop-color:#A8A8A8;stop-opacity:0.9378"/>
				<stop  offset="0.5409" style="stop-color:#BCBCBC;stop-opacity:0.8918"/>
				<stop  offset="0.7707" style="stop-color:#C8C8C8;stop-opacity:0.8459"/>
				<stop  offset="1" style="stop-color:#CCCCCC;stop-opacity:0.8"/>
			</linearGradient>
			<path class="st26" d="M208.8,341.2h2.8v-2.1h-2.8V341.2z M208.8,57.1v2.1h2.8v-2.1H208.8z"/>
			
				<linearGradient id="SVGID_23_" gradientUnits="userSpaceOnUse" x1="1692.6794" y1="199.1401" x2="1695.493" y2="199.1401" gradientTransform="matrix(-1 0 0 1 1732.8961 0)">
				<stop  offset="0" style="stop-color:#808080"/>
				<stop  offset="8.178127e-02" style="stop-color:#8C8C8C;stop-opacity:0.9918"/>
				<stop  offset="0.3108" style="stop-color:#A8A8A8;stop-opacity:0.9689"/>
				<stop  offset="0.5409" style="stop-color:#BCBCBC;stop-opacity:0.9459"/>
				<stop  offset="0.7707" style="stop-color:#C8C8C8;stop-opacity:0.9229"/>
				<stop  offset="1" style="stop-color:#CCCCCC;stop-opacity:0.9"/>
			</linearGradient>
			<path class="st27" d="M40.2,339.1h-2.8v2.1h2.8V339.1z M37.4,57.1v2.1h2.8v-2.1H37.4z"/>
			<g>
				<linearGradient id="SVGID_24_" gradientUnits="userSpaceOnUse" x1="212.2074" y1="124.6232" x2="212.6976" y2="124.6232">
					<stop  offset="0" style="stop-color:#4A4A4A"/>
					<stop  offset="0.1675" style="stop-color:#4E4E4E"/>
					<stop  offset="0.3276" style="stop-color:#595959"/>
					<stop  offset="0.4847" style="stop-color:#6D6D6D"/>
					<stop  offset="0.64" style="stop-color:#888888"/>
					<stop  offset="0.794" style="stop-color:#ABABAB"/>
					<stop  offset="0.945" style="stop-color:#D5D5D5"/>
					<stop  offset="1" style="stop-color:#E6E6E6"/>
				</linearGradient>
				<path class="st28" d="M212.6,104.7c-0.4,0.4-0.4,1.4-0.4,3.5c0,2,0,34.2,0,34.9c0,0.7,0,1.4,0.3,1.5c0.1-0.1,0.2-0.5,0.2-0.9
					s0-37,0-37.5S212.7,104.8,212.6,104.7z"/>
				<linearGradient id="SVGID_25_" gradientUnits="userSpaceOnUse" x1="211.808" y1="103.9487" x2="211.808" y2="145.0505">
					<stop  offset="1.600000e-02" style="stop-color:#000000"/>
					<stop  offset="2.554071e-02" style="stop-color:#1C1C1C"/>
					<stop  offset="4.906329e-02" style="stop-color:#5C5C5C"/>
					<stop  offset="7.154604e-02" style="stop-color:#919191"/>
					<stop  offset="9.237027e-02" style="stop-color:#BABABA"/>
					<stop  offset="0.1112" style="stop-color:#D8D8D8"/>
					<stop  offset="0.1273" style="stop-color:#EAEAEA"/>
					<stop  offset="0.1389" style="stop-color:#F0F0F0"/>
					<stop  offset="0.8655" style="stop-color:#F0F0F0"/>
					<stop  offset="0.8779" style="stop-color:#EBEBEB"/>
					<stop  offset="0.8925" style="stop-color:#DDDDDD"/>
					<stop  offset="0.9084" style="stop-color:#C5C5C5"/>
					<stop  offset="0.925" style="stop-color:#A3A3A3"/>
					<stop  offset="0.9423" style="stop-color:#787878"/>
					<stop  offset="0.9602" style="stop-color:#444444"/>
					<stop  offset="0.9782" style="stop-color:#070707"/>
					<stop  offset="0.98" style="stop-color:#000000"/>
				</linearGradient>
				<path class="st29" d="M212.2,143c0-0.7,0-32.8,0-34.9c0-2,0-3.1,0.4-3.5l-1-0.6c-0.5,0.8-0.5,2.4-0.5,3.1c0,0.6,0,33.4,0,35
					c0,1.6,0.1,2.6,0.4,2.9l1.1-0.4C212.2,144.5,212.2,143.7,212.2,143z"/>
			</g>
			<g>
				
					<linearGradient id="SVGID_26_" gradientUnits="userSpaceOnUse" x1="1682.7992" y1="108.5809" x2="1683.2894" y2="108.5809" gradientTransform="matrix(-1 0 0 1 1719.5812 0)">
					<stop  offset="0" style="stop-color:#4A4A4A"/>
					<stop  offset="0.1675" style="stop-color:#4E4E4E"/>
					<stop  offset="0.3276" style="stop-color:#595959"/>
					<stop  offset="0.4847" style="stop-color:#6D6D6D"/>
					<stop  offset="0.64" style="stop-color:#888888"/>
					<stop  offset="0.794" style="stop-color:#ABABAB"/>
					<stop  offset="0.945" style="stop-color:#D5D5D5"/>
					<stop  offset="1" style="stop-color:#E6E6E6"/>
				</linearGradient>
				<path class="st30" d="M36.4,96.1c0.4,0.3,0.4,1.4,0.4,3.5c0,2,0,19.3,0,20s0,1.4-0.3,1.5c-0.1-0.1-0.2-0.5-0.2-0.9
					c0-0.4,0-22.1,0-22.6S36.3,96.2,36.4,96.1z"/>
				
					<linearGradient id="SVGID_27_" gradientUnits="userSpaceOnUse" x1="1682.3998" y1="95.3913" x2="1682.3998" y2="121.5336" gradientTransform="matrix(-1 0 0 1 1719.5812 0)">
					<stop  offset="0" style="stop-color:#121212"/>
					<stop  offset="3.297346e-03" style="stop-color:#1C1C1C"/>
					<stop  offset="2.555969e-02" style="stop-color:#5C5C5C"/>
					<stop  offset="4.682959e-02" style="stop-color:#919191"/>
					<stop  offset="6.652983e-02" style="stop-color:#BABABA"/>
					<stop  offset="8.431810e-02" style="stop-color:#D8D8D8"/>
					<stop  offset="9.958361e-02" style="stop-color:#EAEAEA"/>
					<stop  offset="0.1106" style="stop-color:#F0F0F0"/>
					<stop  offset="0.9109" style="stop-color:#F0F0F0"/>
					<stop  offset="0.9214" style="stop-color:#EBEBEB"/>
					<stop  offset="0.934" style="stop-color:#DDDDDD"/>
					<stop  offset="0.9475" style="stop-color:#C5C5C5"/>
					<stop  offset="0.9617" style="stop-color:#A3A3A3"/>
					<stop  offset="0.9765" style="stop-color:#787878"/>
					<stop  offset="0.9915" style="stop-color:#454545"/>
					<stop  offset="1" style="stop-color:#242424"/>
				</linearGradient>
				<path class="st31" d="M36.8,119.5c0-0.7,0-17.9,0-20c0-2,0-3.1-0.4-3.5l1-0.6c0.5,0.8,0.5,2.4,0.5,3.1s0,18.5,0,20.1
					c0,1.6-0.1,2.6-0.4,2.9l-1.1-0.4C36.8,121,36.8,120.2,36.8,119.5z"/>
			</g>
			<g>
				
					<linearGradient id="SVGID_28_" gradientUnits="userSpaceOnUse" x1="1682.7992" y1="140.7366" x2="1683.2894" y2="140.7366" gradientTransform="matrix(-1 0 0 1 1719.5812 0)">
					<stop  offset="0" style="stop-color:#4A4A4A"/>
					<stop  offset="0.1675" style="stop-color:#4E4E4E"/>
					<stop  offset="0.3276" style="stop-color:#595959"/>
					<stop  offset="0.4847" style="stop-color:#6D6D6D"/>
					<stop  offset="0.64" style="stop-color:#888888"/>
					<stop  offset="0.794" style="stop-color:#ABABAB"/>
					<stop  offset="0.945" style="stop-color:#D5D5D5"/>
					<stop  offset="1" style="stop-color:#E6E6E6"/>
				</linearGradient>
				<path class="st32" d="M36.4,128.2c0.4,0.4,0.4,1.4,0.4,3.5s0,19.3,0,20c0,0.7,0,1.4-0.3,1.5c-0.1-0.1-0.2-0.5-0.2-0.9
					c0-0.4,0-22.1,0-22.6C36.3,129.1,36.3,128.4,36.4,128.2z"/>
				
					<linearGradient id="SVGID_29_" gradientUnits="userSpaceOnUse" x1="1682.3998" y1="127.547" x2="1682.3998" y2="153.6893" gradientTransform="matrix(-1 0 0 1 1719.5812 0)">
					<stop  offset="0" style="stop-color:#121212"/>
					<stop  offset="3.297346e-03" style="stop-color:#1C1C1C"/>
					<stop  offset="2.555969e-02" style="stop-color:#5C5C5C"/>
					<stop  offset="4.682959e-02" style="stop-color:#919191"/>
					<stop  offset="6.652983e-02" style="stop-color:#BABABA"/>
					<stop  offset="8.431810e-02" style="stop-color:#D8D8D8"/>
					<stop  offset="9.958361e-02" style="stop-color:#EAEAEA"/>
					<stop  offset="0.1106" style="stop-color:#F0F0F0"/>
					<stop  offset="0.9109" style="stop-color:#F0F0F0"/>
					<stop  offset="0.9214" style="stop-color:#EBEBEB"/>
					<stop  offset="0.934" style="stop-color:#DDDDDD"/>
					<stop  offset="0.9475" style="stop-color:#C5C5C5"/>
					<stop  offset="0.9617" style="stop-color:#A3A3A3"/>
					<stop  offset="0.9765" style="stop-color:#787878"/>
					<stop  offset="0.9915" style="stop-color:#454545"/>
					<stop  offset="1" style="stop-color:#242424"/>
				</linearGradient>
				<path class="st33" d="M36.8,151.7c0-0.7,0-17.9,0-20s0-3.1-0.4-3.5l1-0.6c0.5,0.8,0.5,2.4,0.5,3.1c0,0.6,0,18.5,0,20.1
					c0,1.6-0.1,2.6-0.4,2.9l-1.1-0.4C36.8,153.1,36.8,152.4,36.8,151.7z"/>
			</g>
			<g>
				<polygon class="st34" points="36.2,71 36.2,83.6 36.5,83.9 36.5,70.7 				"/>
				<linearGradient id="SVGID_30_" gradientUnits="userSpaceOnUse" x1="37.1012" y1="70.7046" x2="37.1012" y2="83.9658">
					<stop  offset="0" style="stop-color:#121212"/>
					<stop  offset="3.297346e-03" style="stop-color:#1C1C1C"/>
					<stop  offset="2.555969e-02" style="stop-color:#5C5C5C"/>
					<stop  offset="4.682959e-02" style="stop-color:#919191"/>
					<stop  offset="6.652983e-02" style="stop-color:#BABABA"/>
					<stop  offset="8.431810e-02" style="stop-color:#D8D8D8"/>
					<stop  offset="9.958361e-02" style="stop-color:#EAEAEA"/>
					<stop  offset="0.1106" style="stop-color:#F0F0F0"/>
					<stop  offset="0.9109" style="stop-color:#F0F0F0"/>
					<stop  offset="0.9214" style="stop-color:#EBEBEB"/>
					<stop  offset="0.934" style="stop-color:#DDDDDD"/>
					<stop  offset="0.9475" style="stop-color:#C5C5C5"/>
					<stop  offset="0.9617" style="stop-color:#A3A3A3"/>
					<stop  offset="0.9765" style="stop-color:#787878"/>
					<stop  offset="0.9915" style="stop-color:#454545"/>
					<stop  offset="1" style="stop-color:#242424"/>
				</linearGradient>
				<path class="st35" d="M37.4,70.7h-0.9v13.2l0,0h0.9c0.2-0.2,0.2-0.4,0.2-0.7c0-0.3,0-11.4,0-11.8C37.7,71,37.6,70.8,37.4,70.7z"
					/>
			</g>
		</g>
	</g>
	<path d="M130,374.3h-6.1c0,0-0.4,0-0.9,0h-6.1c-0.9,0-2.1,0.1-3.8,1h20.8C132,374.4,130.9,374.3,130,374.3z"/>
	<linearGradient id="SVGID_31_" gradientUnits="userSpaceOnUse" x1="123.4156" y1="374.5132" x2="123.4156" y2="375.3501">
		<stop  offset="0" style="stop-color:#616369"/>
		<stop  offset="0.1105" style="stop-color:#515358"/>
		<stop  offset="0.3349" style="stop-color:#37383C"/>
		<stop  offset="0.5593" style="stop-color:#242527"/>
		<stop  offset="0.7817" style="stop-color:#191A1B"/>
		<stop  offset="1" style="stop-color:#151617"/>
	</linearGradient>
	<path class="st36" d="M129.6,374.5h-5.7c0,0-0.3,0-0.9,0h-5.7c-0.9,0-1.9,0-3.6,0.8h19.5C131.5,374.6,130.4,374.5,129.6,374.5z"/>
</g>
</svg>
